<svg xmlns="http://www.w3.org/2000/svg" preserveAspectRatio="none" viewBox="0 0 16 16">
<rect x="0" y="0" width="16" height="16" fill="white"/>
<path fill="#CDD8E4" d="M15,1v14H1V1H15 M16,0H0v16h16V0L16,0z"/>
<path fill="#7A8899" d="M9.806,8.474C9.279,8.774,8.958,8.968,8.958,9.29v0.322c0,0.184-0.141,0.322-0.323,0.322H7.023
	c-0.181,0-0.322-0.139-0.322-0.322V8.928c0-1.24,0.884-1.632,1.602-1.954C8.907,6.69,9.279,6.497,9.279,6.046
	c0-0.585-0.733-1.02-1.401-1.02c-0.352,0-0.724,0.112-0.957,0.273C6.701,5.451,6.49,5.671,6.116,6.135
	c-0.06,0.079-0.151,0.122-0.25,0.122c-0.072,0-0.141-0.02-0.194-0.062L4.586,5.369C4.454,5.267,4.421,5.076,4.514,4.935
	C5.339,3.635,6.5,3,8.03,3c1.658,0,3.506,1.31,3.506,3.065C11.536,7.497,10.54,8.06,9.806,8.474z
   M8.958,12.678C8.958,12.861,8.817,13,8.635,13H7.023c-0.181,0-0.322-0.139-0.322-0.322v-1.612
   c0-0.184,0.141-0.322,0.322-0.322h1.611c0.183,0,0.323,0.139,0.323,0.322V12.678z"/>
</svg>
