<svg xmlns="http://www.w3.org/2000/svg" preserveAspectRatio="none" viewBox="0 0 16 16">
<path fill="#7A8899" d="M15.359,9.763h-2.236c0,1.25-0.276,2.189-0.671,2.896l2.078,2.092c0.25,0.25,0.25,0.653,0,0.903
	c-0.122,0.127-0.293,0.188-0.451,0.188s-0.329-0.062-0.452-0.188l-1.974-1.969c0,0-1.312,1.192-3.013,1.192V5.921H7.359v8.956
	c-1.811,0-3.131-1.315-3.131-1.315l-1.83,2.065c-0.127,0.141-0.297,0.215-0.478,0.215c-0.149,0-0.302-0.048-0.43-0.157
	c-0.263-0.246-0.28-0.641-0.053-0.917L3.461,12.5c-0.352-0.688-0.58-1.579-0.58-2.737h-2.24C0.289,9.763,0,9.47,0,9.123
	c0-0.351,0.289-0.641,0.641-0.641h2.24c0-1.28,0-2.28,0-2.942L1.148,3.812c-0.25-0.25-0.25-0.653,0-0.903s0.65-0.25,0.9,0
	l1.732,1.732h8.438l1.732-1.732c0.25-0.25,0.645-0.25,0.895,0s0.25,0.653,0,0.903L13.123,5.54c0,0.662,0,1.662,0,2.942h2.236
	c0.347,0,0.641,0.29,0.641,0.641C16,9.47,15.706,9.763,15.359,9.763z M4.799,3.36c0-1.768,1.43-3.202,3.201-3.202
	c1.768,0,3.202,1.435,3.202,3.202H4.799z"/>
</svg>
