<svg xmlns="http://www.w3.org/2000/svg" preserveAspectRatio="none" viewBox="0 0 16 16">
<path fill="#7A8899" d="M15.73,9.739C14.844,13.426,11.801,16,7.958,16c-2.031,0-4-0.801-5.48-2.208l-1.344,1.344
	c-0.125,0.125-0.291,0.197-0.468,0.197C0.302,15.333,0,15.031,0,14.667V10c0-0.364,0.302-0.667,0.667-0.667h4.667
	C5.698,9.333,6,9.636,6,10c0,0.177-0.073,0.344-0.198,0.469l-1.427,1.427C5.354,12.813,6.656,13.333,8,13.333
	c1.854,0,3.574-0.958,4.543-2.541c0.249-0.405,0.375-0.803,0.551-1.218c0.052-0.148,0.157-0.241,0.313-0.241h2
	c0.188,0,0.333,0.156,0.333,0.334C15.739,9.688,15.739,9.719,15.73,9.739z M16,6c0,0.365-0.301,0.667-0.667,0.667h-4.666
	C10.301,6.667,10,6.365,10,6c0-0.177,0.074-0.344,0.199-0.469l1.437-1.438C10.646,3.177,9.344,2.667,8,2.667
	c-1.854,0-3.573,0.958-4.542,2.542C3.209,5.615,3.083,6.01,2.906,6.427C2.854,6.573,2.75,6.667,2.594,6.667H0.521
	c-0.188,0-0.334-0.156-0.334-0.333c0-0.021,0-0.052,0-0.073C1.083,2.563,4.156,0,8,0c2.043,0,4.031,0.813,5.511,2.209l1.354-1.344
	c0.125-0.125,0.292-0.199,0.469-0.199C15.699,0.667,16,0.969,16,1.333V6z"/>
</svg>
