<svg xmlns="http://www.w3.org/2000/svg" preserveAspectRatio="none" viewBox="0 0 16 16">
<path fill="#7A8899" d="M0.031,0.946L0,0.031c0.134-0.009,0.272-0.009,0.415-0.009c0.366,0,0.764,0.009,1.17,0.04
	c0.978,0.054,1.563,0.071,1.728,0.071c0.594,0,1.179-0.009,1.75-0.031c0.563-0.018,1.071-0.04,1.522-0.049
	c0.438,0,0.736-0.014,0.893-0.022L7.469,0.179l0.022,0.665v0.094C7.071,1,6.647,1.031,6.196,1.031
	c-0.415,0-0.688,0.085-0.821,0.259C5.281,1.397,5.241,1.853,5.241,2.665c0,0.25,0.009,0.451,0.009,0.607l0.009,2.384l0.147,2.919
	c0.04,0.845,0.21,1.536,0.531,2.099c0.241,0.406,0.571,0.732,1,0.965c0.625,0.33,1.241,0.486,1.844,0.486
	c0.705,0,1.375-0.094,1.986-0.295c0.371-0.111,0.715-0.281,1.031-0.531c0.326-0.236,0.559-0.455,0.684-0.66
	c0.268-0.42,0.441-0.826,0.549-1.188c0.143-0.514,0.219-1.304,0.219-2.389c0-1.866-0.139-1.915-0.295-4.272L12.92,2.179
	c-0.031-0.451-0.107-0.764-0.25-0.92c-0.232-0.236-0.5-0.361-0.809-0.353l-1.035,0.022l-0.152-0.031L10.701,0h0.875l2.129,0.103
	C14.42,0.134,15.094,0.071,15.75,0l0.188,0.022C15.982,0.281,16,0.46,16,0.554s-0.018,0.196-0.045,0.321
	C15.674,0.946,15.389,1,15.08,1.009c-0.486,0.076-0.768,0.125-0.816,0.179c-0.094,0.094-0.156,0.228-0.156,0.429
	c0,0.134,0.018,0.344,0.031,0.603c0,0,0.08,0.188,0.223,4.125c0.059,1.571-0.049,2.639-0.156,3.17
	c-0.098,0.531-0.25,0.955-0.424,1.268c-0.268,0.455-0.67,0.889-1.17,1.281c-0.504,0.389-1.129,0.701-1.893,0.924
	c-0.764,0.232-1.643,0.344-2.656,0.344c-1.147,0-2.134-0.156-2.96-0.473c-0.821-0.326-1.446-0.75-1.861-1.277
	c-0.42-0.518-0.71-1.191-0.866-2.031C2.259,8.982,2.21,8.156,2.21,7.085V3.616c0-1.313-0.063-2.054-0.179-2.219
	C1.866,1.156,1.353,1.009,0.5,0.991C0.313,0.978,0.156,0.978,0.031,0.946z M16,15c0-0.188-0.143-0.33-0.33-0.33H0.335
	C0.147,14.67,0,14.813,0,15v0.67C0,15.857,0.147,16,0.335,16H15.67c0.188,0,0.33-0.143,0.33-0.33V15z"/>
</svg>
