<svg xmlns="http://www.w3.org/2000/svg" preserveAspectRatio="none" viewBox="0 0 16 16">
<path fill="#7A8899" d="M3.175,15.641C2.954,15.861,2.629,16,2.299,16c-0.329,0-0.65-0.139-0.884-0.359l-1.035-1.05
	c-0.23-0.229-0.369-0.546-0.369-0.875c0-0.339,0.139-0.655,0.369-0.889l6.631-6.633c0.507,1.275,1.53,2.293,2.805,2.805
	L3.175,15.641z M2.924,12.467c-0.343,0-0.625,0.282-0.625,0.625c0,0.333,0.282,0.624,0.625,0.624c0.342,0,0.624-0.291,0.624-0.624
	C3.548,12.749,3.266,12.467,2.924,12.467z M15.768,5.796c-0.611,1.733-2.28,2.926-4.122,2.926c-2.401,0-4.361-1.955-4.361-4.361
	C7.285,1.959,9.244,0,11.646,0c0.715,0,1.639,0.212,2.232,0.616c0.096,0.065,0.156,0.151,0.156,0.269
	c0,0.108-0.065,0.217-0.156,0.273l-2.856,1.647v2.18l1.886,1.045c0.316-0.187,2.579-1.609,2.77-1.609
	c0.199,0,0.313,0.147,0.313,0.343C15.989,5.085,15.876,5.483,15.768,5.796z
	M16,13c0,1.656-1.344,3-3,3s-3-1.344-3-3s1.344-3,3-3S16,11.344,16,13z M13.563,11.102
	c0-0.027-0.012-0.055-0.039-0.07C13.5,11.012,13.465,11,13.43,11H12.57c-0.035,0-0.07,0.012-0.094,0.031
	c-0.027,0.016-0.039,0.043-0.039,0.07l0.066,2.426c0,0.055,0.059,0.098,0.133,0.098h0.723c0.07,0,0.129-0.043,0.133-0.098
	L13.563,11.102z M13.5,14.129c0-0.07-0.055-0.129-0.121-0.129h-0.75c-0.07,0-0.129,0.059-0.129,0.129v0.742
	c0,0.07,0.059,0.129,0.129,0.129h0.75c0.066,0,0.121-0.059,0.121-0.129V14.129z"/>
</svg>
