<svg xmlns="http://www.w3.org/2000/svg" preserveAspectRatio="none" viewBox="0 0 16 16">
<path fill="#7A8899" d="M14.16,10.085c-0.24,0.25-0.643,0.25-0.893,0L8,4.813l-5.273,5.271c-0.245,0.25-0.643,0.25-0.892,0
	l-1.648-1.64c-0.25-0.25-0.25-0.656,0-0.904l7.368-7.354c0.248-0.249,0.643-0.249,0.891,0l7.368,7.354
	c0.248,0.248,0.248,0.654,0,0.904L14.16,10.085z
   M6.908,13.09H4.546C4.245,13.09,4,12.848,4,12.546v-1.092c0-0.302,0.245-0.544,0.546-0.544H6.91h2.182
	h2.363c0.301,0,0.545,0.242,0.545,0.544v1.092c0,0.302-0.244,0.544-0.546,0.544H9.092"/>
</svg>
