<svg xmlns="http://www.w3.org/2000/svg" preserveAspectRatio="none" viewBox="0 0 16 16">
<path fill="#3A95D5" d="M11.425,3.432c0,0.313-0.254,0.57-0.566,0.57H0.573C0.26,4.002,0,3.744,0,3.432V2.29
	c0-0.313,0.26-0.575,0.573-0.575h10.286c0.313,0,0.566,0.263,0.566,0.575V3.432z M14.858,6.86c0,0.313-0.263,0.571-0.575,0.571
	H0.573C0.26,7.432,0,7.173,0,6.86V5.715c0-0.313,0.26-0.571,0.573-0.571h13.71c0.313,0,0.575,0.259,0.575,0.571V6.86z
	 M12.575,10.285c0,0.313-0.263,0.576-0.575,0.576H0.573C0.26,10.861,0,10.598,0,10.285V9.145c0-0.313,0.26-0.566,0.573-0.566H12
	c0.313,0,0.575,0.254,0.575,0.566V10.285z M16,13.719c0,0.313-0.263,0.566-0.575,0.566H0.573C0.26,14.285,0,14.031,0,13.719v-1.141
	c0-0.313,0.26-0.576,0.573-0.576h14.852c0.313,0,0.575,0.264,0.575,0.576V13.719z"/>
</svg>
