<svg xmlns="http://www.w3.org/2000/svg" preserveAspectRatio="none" viewBox="0 0 16 16">
<path fill="#7A8899" d="M16,9.177c0,0.155-0.125,0.342-0.295,0.373l-1.924,0.294c-0.111,0.33-0.236,0.643-0.406,0.951
	c0.357,0.504,0.732,0.969,1.111,1.438c0.063,0.066,0.107,0.16,0.107,0.254s-0.031,0.17-0.094,0.246
	c-0.25,0.33-1.656,1.861-2.014,1.861c-0.094,0-0.188-0.045-0.268-0.094l-1.438-1.125c-0.299,0.156-0.625,0.295-0.951,0.393
	c-0.066,0.639-0.129,1.313-0.299,1.938C9.486,15.875,9.344,16,9.156,16H6.844c-0.188,0-0.353-0.139-0.375-0.313l-0.29-1.92
	c-0.326-0.098-0.639-0.223-0.938-0.379L3.772,14.5c-0.076,0.063-0.17,0.094-0.264,0.094s-0.188-0.045-0.259-0.111
	c-0.554-0.5-1.281-1.152-1.719-1.75c-0.054-0.076-0.071-0.156-0.071-0.246c0-0.094,0.031-0.16,0.08-0.236
	c0.357-0.482,0.741-0.938,1.094-1.424c-0.174-0.34-0.321-0.684-0.424-1.032L0.304,9.512C0.125,9.48,0,9.313,0,9.136V6.821
	c0-0.156,0.125-0.344,0.281-0.375l1.938-0.29c0.103-0.335,0.241-0.647,0.406-0.96c-0.353-0.5-0.728-0.969-1.116-1.438
	c-0.063-0.071-0.103-0.156-0.103-0.25S1.446,3.344,1.5,3.272c0.25-0.344,1.656-1.866,2.009-1.866c0.094,0,0.188,0.04,0.272,0.103
	l1.438,1.116c0.304-0.156,0.625-0.29,0.946-0.397C6.241,1.594,6.304,0.915,6.469,0.29C6.509,0.125,6.656,0,6.844,0h2.313
	c0.188,0,0.357,0.134,0.375,0.313l0.295,1.915c0.316,0.107,0.629,0.232,0.938,0.389L12.236,1.5c0.063-0.063,0.156-0.094,0.25-0.094
	s0.188,0.04,0.264,0.103c0.549,0.514,1.281,1.156,1.719,1.772c0.049,0.063,0.076,0.147,0.076,0.228c0,0.094-0.031,0.17-0.09,0.241
	c-0.348,0.478-0.736,0.938-1.094,1.429c0.184,0.33,0.326,0.674,0.434,1.018l1.906,0.295C15.875,6.522,16,6.688,16,6.866V9.177z
	M8,5.335C6.531,5.335,5.335,6.531,5.335,8S6.531,10.67,8,10.67S10.67,9.469,10.67,8S9.469,5.335,8,5.335z"/>
</svg>
