<svg xmlns="http://www.w3.org/2000/svg" preserveAspectRatio="none" viewBox="0 0 16 16">
<path fill="#7A8899" d="M2.847,15.094c0.665-0.205,1.384-0.295,2.009-0.611c0.24-0.309,0.357-0.688,0.428-1.059
	C5.418,12.719,7.689,2.5,7.658,1.665V1.406c-0.57-0.313-1.271-0.228-1.896-0.335L5.963,0c1.344,0.063,2.709,0.165,4.057,0.165
	c1.107,0,2.215-0.103,3.313-0.165c-0.035,0.313-0.111,0.625-0.191,0.929c-0.719,0.25-1.482,0.361-2.188,0.643
	c-0.232,0.563-0.281,1.179-0.389,1.772c-0.5,2.696-1.17,5.393-1.719,8.076c-0.107,0.5-0.611,2.566-0.576,3.004l0.014,0.188
	c0.639,0.152,1.281,0.219,1.924,0.326c-0.018,0.344-0.08,0.688-0.16,1.031C9.814,15.969,9.596,16,9.363,16
	c-0.594,0-1.205-0.201-1.799-0.205c-0.719-0.014-1.438-0.027-2.146-0.027c-0.924,0-1.83,0.156-2.75,0.215L2.847,15.094z"/>
</svg>
