<svg xmlns="http://www.w3.org/2000/svg" preserveAspectRatio="none" viewBox="0 0 16 16">
<path fill="#7A8899" d="M8,16c-4.415,0-8-3.58-8-8c0-4.415,3.585-8,8-8c4.419,0,8,3.585,8,8C16,12.42,12.419,16,8,16z M1.335,8
	c0,3.674,2.986,6.67,6.665,6.67c3.676,0,6.67-2.996,6.67-6.67c0-3.679-2.994-6.665-6.67-6.665C4.321,1.335,1.335,4.321,1.335,8z
	M10.04,8.489C9.5,8.8,9.165,9,9.165,9.33v0.34c0,0.188-0.143,0.33-0.33,0.33h-1.67c-0.188,0-0.33-0.143-0.33-0.33V8.955
	c0-1.276,0.915-1.683,1.656-2.018C9.116,6.647,9.5,6.446,9.5,5.978c0-0.603-0.759-1.049-1.446-1.049
	c-0.366,0-0.75,0.111-0.991,0.281C6.835,5.366,6.616,5.594,6.228,6.071C6.165,6.156,6.071,6.196,5.969,6.196
	c-0.071,0-0.147-0.018-0.196-0.063L4.647,5.281c-0.139-0.103-0.17-0.304-0.076-0.446c0.857-1.344,2.054-2,3.639-2
	c1.705,0,3.622,1.353,3.622,3.165C11.832,7.478,10.802,8.063,10.04,8.489z M9.165,12.83c0,0.188-0.143,0.34-0.33,0.34h-1.67
	c-0.188,0-0.33-0.152-0.33-0.34v-1.66c0-0.188,0.143-0.34,0.33-0.34h1.67c0.188,0,0.33,0.152,0.33,0.34V12.83z"/>
</svg>
