<svg xmlns="http://www.w3.org/2000/svg" preserveAspectRatio="none" viewBox="0 0 16 16">
<path fill="#7A8899" d="M16,4.288v10.854C16,15.612,15.612,16,15.142,16H6.57c-0.471,0-0.857-0.388-0.857-0.858v-2.566H0.858
	C0.383,12.575,0,12.188,0,11.717V5.712C0,5.242,0.275,4.579,0.608,4.25L4.25,0.608C4.579,0.275,5.242,0,5.713,0h3.716
	c0.474,0,0.855,0.383,0.855,0.858v2.929c0.353-0.208,0.795-0.358,1.141-0.358h3.717C15.612,3.429,16,3.813,16,4.288z M9.142,4.858
	V1.142H5.713v3.717c0,0.471-0.384,0.854-0.854,0.854H1.142v5.712h4.571V9.142c0-0.471,0.279-1.134,0.607-1.462L9.142,4.858z
	M1.9,4.571h2.67V1.9L1.9,4.571z M14.858,4.571h-3.434v3.716c0,0.471-0.379,0.854-0.851,0.854H6.858v5.717h8V4.571z M7.617,8h2.667
	V5.329L7.617,8z"/>
</svg>
