<svg xmlns="http://www.w3.org/2000/svg" preserveAspectRatio="none" viewBox="0 0 16 16">
<path fill="#7A8899" d="M13.426,5.605c-0.076,0.084-0.181,0.121-0.287,0.121c-0.053,0-0.109-0.012-0.159-0.033
	c-0.148-0.063-0.25-0.208-0.25-0.375V4.091h-1.023c-1.408,0-2.302,0.269-2.801,0.837C8.388,5.521,8.233,6.482,8.432,7.951
	c0.014,0.09-0.044,0.18-0.128,0.219c-0.025,0.006-0.05,0.012-0.075,0.012c-0.065,0-0.13-0.033-0.167-0.08
	C8.017,8.033,7,6.598,7,5.318c0-1.713,0.536-3.681,4.706-3.681h1.023V0.409c0-0.166,0.102-0.313,0.25-0.377
	C13.029,0.013,13.086,0,13.139,0c0.106,0,0.211,0.044,0.287,0.122l2.455,2.455c0.158,0.159,0.158,0.415,0,0.574L13.426,5.605z
   M15.612,11.473l-2.471,3.037c-0.481,0.59-1.392,1.026-2.144,1.026H1.876C0.845,15.536,0,14.691,0,13.66
	V5.609c0-1.031,0.845-1.876,1.876-1.876h2.685c1.031,0,1.877,0.845,1.877,1.876v0.267h4.561c1.031,0,1.876,0.849,1.876,1.88v1.342
	h1.609c0.566,0,1.141,0.255,1.392,0.797C15.956,10.069,16,10.26,16,10.462C16,10.834,15.842,11.182,15.612,11.473z M11.799,9.099
	V7.757c0-0.445-0.359-0.805-0.801-0.805H6.17c-0.448,0-0.809-0.36-0.809-0.805V5.609c0-0.444-0.359-0.805-0.801-0.805H1.876
	c-0.44,0-0.804,0.36-0.804,0.805v7.149l2.147-2.641c0.485-0.595,1.381-1.02,2.143-1.02H11.799z M14.483,10.167H5.361
	c-0.44,0-1.027,0.278-1.313,0.622l-2.463,3.045c-0.077,0.097-0.149,0.206-0.149,0.332c0,0.234,0.259,0.295,0.44,0.295h9.122
	c0.441,0,1.031-0.279,1.314-0.627l2.466-3.045c0.069-0.093,0.146-0.202,0.146-0.327C14.925,10.228,14.67,10.167,14.483,10.167z"/>
</svg>
