<svg xmlns="http://www.w3.org/2000/svg" preserveAspectRatio="none" viewBox="0 0 16 16">
<path fill="#3A95D5" d="M8,16c-2.384,0-4.634-1.049-6.156-2.889c-0.103-0.129-0.094-0.33,0.022-0.441l1.424-1.438
	c0.076-0.063,0.17-0.094,0.264-0.094c0.094,0.004,0.188,0.049,0.236,0.125C4.813,12.58,6.344,13.33,8,13.33
	c2.938,0,5.33-2.393,5.33-5.33S10.938,2.665,8,2.665c-1.366,0-2.656,0.522-3.625,1.429l1.429,1.438C6,5.719,6.054,6.009,5.946,6.25
	C5.844,6.5,5.603,6.665,5.335,6.665h-4.67C0.304,6.665,0,6.366,0,6V1.335c0-0.272,0.165-0.514,0.415-0.616
	c0.241-0.103,0.531-0.054,0.719,0.147L2.491,2.21C3.96,0.821,5.946,0,8,0c4.406,0,8,3.594,8,8S12.406,16,8,16z"/>
</svg>
