<svg xmlns="http://www.w3.org/2000/svg" preserveAspectRatio="none" viewBox="0 0 16 16">
<path fill="#3A95D5" d="M5.248,1.862H7V0.25C7,0.109,7.108,0,7.25,0h1.501c0.141,0,0.25,0.109,0.25,0.25v1.612h1.751
	c0.102,0,0.188,0.055,0.227,0.149c0.04,0.094,0.023,0.195-0.039,0.274L8.203,5.287c-0.047,0.046-0.109,0.078-0.18,0.078
	S7.883,5.333,7.836,5.287L5.061,2.285c-0.063-0.079-0.078-0.18-0.039-0.274C5.061,1.924,5.146,1.862,5.248,1.862z
   M0,7.431c0-0.313,0.264-0.574,0.574-0.574H15.43c0.312,0,0.57,0.262,0.57,0.574v1.143
	c0,0.313-0.259,0.57-0.57,0.57H0.574C0.264,9.144,0,8.886,0,8.573V7.431z
   M10.752,14.139H9v1.611C9,15.891,8.892,16,8.75,16H7.249c-0.141,0-0.25-0.109-0.25-0.25v-1.611H5.248
	c-0.102,0-0.188-0.055-0.227-0.148c-0.04-0.094-0.023-0.195,0.039-0.274l2.736-3.002c0.047-0.046,0.109-0.077,0.18-0.077
	s0.141,0.031,0.188,0.077l2.775,3.002c0.063,0.079,0.078,0.181,0.039,0.274C10.939,14.076,10.854,14.139,10.752,14.139z"/>
</svg>
