<svg xmlns="http://www.w3.org/2000/svg" preserveAspectRatio="none" viewBox="0 0 16 16">
<path fill="#3A95D5" d="M10.65,15.921l-2.854-2.858c-0.054-0.049-0.083-0.138-0.083-0.203c0-0.154,0.137-0.283,0.287-0.283h1.713
	V0.288C9.713,0.133,9.85,0,10,0h1.712C11.867,0,12,0.133,12,0.288v12.288h1.712C13.875,12.575,14,12.7,14,12.857
	c0,0.08-0.038,0.154-0.087,0.218l-2.851,2.846C11.008,15.971,10.93,16,10.857,16C10.787,16,10.704,15.971,10.65,15.921z M4.283,16
	C4.139,16,4,15.861,4,15.717V3.429H2.283C2.139,3.429,2,3.304,2,3.142c0-0.079,0.033-0.15,0.092-0.212L4.95,0.08
	C5,0.025,5.075,0,5.143,0c0.078,0,0.153,0.025,0.203,0.079l2.858,2.858C8.258,2.991,8.287,3.07,8.287,3.141
	c0,0.154-0.125,0.288-0.287,0.288H6.283v12.288C6.283,15.861,6.158,16,6,16H4.283z"/>
</svg>
