<svg xmlns="http://www.w3.org/2000/svg" preserveAspectRatio="none" viewBox="0 0 16 16">
<path fill="#7A8899" d="M16,12.611c0,0.166-0.144,0.309-0.312,0.309h-2.153v1.543c0,0.504-0.413,0.922-0.923,0.922H3.383
	c-0.51,0-0.923-0.418-0.923-0.922V12.92H0.305C0.143,12.92,0,12.777,0,12.611V8.619c0-1.014,0.836-1.853,1.845-1.853H2.46V1.538
	c0-0.51,0.413-0.923,0.923-0.923h6.461c0.51,0,1.213,0.289,1.575,0.655l1.467,1.458c0.362,0.366,0.648,1.068,0.648,1.578v2.46
	h0.619C15.161,6.767,16,7.605,16,8.619V12.611z M12.31,7.999V4.307h-1.543c-0.505,0-0.922-0.411-0.922-0.924V1.846H3.693v6.153
	H12.31z M12.31,14.154v-2.465H3.693v2.465H12.31z M14.154,7.999c-0.341,0-0.619,0.28-0.619,0.62c0,0.332,0.278,0.609,0.619,0.609
	c0.333,0,0.611-0.277,0.611-0.609C14.766,8.279,14.487,7.999,14.154,7.999z"/>
</svg>
