<svg xmlns="http://www.w3.org/2000/svg" preserveAspectRatio="none" viewBox="0 0 16 16">
<path fill="#7A8899" d="M14.768,16.001c-0.328,0-0.643-0.129-0.862-0.362l-3.298-3.293c-1.125,0.78-2.473,1.198-3.84,1.198
	C3.03,13.544,0,10.514,0,6.771C0,3.03,3.03-0.001,6.768-0.001c3.745,0,6.775,3.031,6.775,6.772c0,1.367-0.418,2.712-1.198,3.837
	l3.3,3.298C15.871,14.126,16,14.449,16,14.777C16,15.449,15.441,16.001,14.768,16.001z M6.768,2.462
	c-2.375,0-4.306,1.935-4.306,4.31c0,2.372,1.931,4.307,4.306,4.307s4.31-1.935,4.31-4.307C11.077,4.396,9.143,2.462,6.768,2.462z"
	/>
</svg>
