<svg xmlns="http://www.w3.org/2000/svg" preserveAspectRatio="none" viewBox="0 0 16 16">
<path fill="#3A95D5" d="M0,8c0-4.406,3.594-8,8-8c2.054,0,4.04,0.821,5.509,2.21l1.357-1.344c0.188-0.201,0.478-0.25,0.719-0.147
	C15.835,0.821,16,1.063,16,1.335V6c0,0.366-0.304,0.665-0.665,0.665h-4.67c-0.268,0-0.509-0.165-0.611-0.415
	C9.946,6.009,10,5.719,10.196,5.531l1.429-1.438C10.656,3.188,9.366,2.665,8,2.665C5.063,2.665,2.67,5.063,2.67,8
	S5.063,13.33,8,13.33c1.656,0,3.188-0.75,4.21-2.066c0.049-0.076,0.143-0.121,0.236-0.125c0.094,0,0.188,0.031,0.264,0.094
	l1.424,1.438c0.116,0.111,0.125,0.313,0.022,0.441C12.634,14.951,10.384,16,8,16C3.594,16,0,12.406,0,8z"/>
</svg>
