<svg xmlns="http://www.w3.org/2000/svg" preserveAspectRatio="none" viewBox="0 0 16 16">
<path fill="#7A8899" d="M16,15c0,0.549-0.451,1-1,1H1c-0.554,0-1-0.451-1-1V1c0-0.554,0.446-1,1-1h9.67
	c0.549,0,1.313,0.313,1.705,0.71l2.92,2.915C15.688,4.022,16,4.781,16,5.335V15z M14.67,14.67V5.335
	c0-0.201-0.184-0.625-0.313-0.764l-2.934-2.924C11.281,1.5,10.875,1.335,10.67,1.335v4.33c0,0.554-0.451,1.005-1,1.005h-6
	c-0.554,0-1.005-0.451-1.005-1.005v-4.33h-1.33V14.67h1.33v-4.34c0-0.549,0.451-1,1.005-1h8.66c0.559,0,1,0.451,1,1v4.34H14.67z
	M12,14.67v-4H4v4H12z M9.33,1.665c0-0.174-0.156-0.33-0.33-0.33H7c-0.174,0-0.33,0.156-0.33,0.33V5
	c0,0.179,0.156,0.335,0.33,0.335h2c0.174,0,0.33-0.156,0.33-0.335V1.665z"/>
</svg>
