<svg xmlns="http://www.w3.org/2000/svg" preserveAspectRatio="none" viewBox="0 0 16 16">
<path fill="#7A8899" d="M14.858,4.858v10.283C14.858,15.612,14.471,16,14,16H2c-0.475,0-0.858-0.388-0.858-0.858V0.858
	C1.142,0.383,1.525,0,2,0h8c0.473,0,1.137,0.275,1.466,0.608l2.784,2.783C14.579,3.725,14.858,4.383,14.858,4.858z M13.717,5.712
	H10c-0.475,0-0.858-0.383-0.858-0.854V1.142H2.288v13.717h11.429V5.712z M10.286,4.571h3.355c-0.05-0.15-0.129-0.304-0.191-0.367
	l-2.798-2.792c-0.063-0.063-0.215-0.146-0.366-0.2V4.571z"/>
</svg>
