<svg xmlns="http://www.w3.org/2000/svg" preserveAspectRatio="none" viewBox="0 0 16 16">
<path fill="#7A8899" d="M11.147,7.281H9.145v7.407c0,0.161-0.125,0.286-0.286,0.286H7.142c-0.161,0-0.286-0.125-0.286-0.286V7.281
	H4.853c-0.116,0-0.215-0.063-0.26-0.17S4.566,6.887,4.638,6.797l3.13-3.433c0.054-0.054,0.125-0.089,0.205-0.089
	c0.081,0,0.161,0.036,0.215,0.089l3.175,3.433c0.071,0.09,0.089,0.206,0.045,0.313C11.362,7.209,11.264,7.281,11.147,7.281z
   M16,1.697c0,0.313-0.264,0.574-0.574,0.574H0.57C0.259,2.271,0,2.009,0,1.697V0.554
	c0-0.313,0.259-0.57,0.57-0.57h14.855c0.311,0,0.574,0.258,0.574,0.57V1.697z"/>
</svg>
