<svg xmlns="http://www.w3.org/2000/svg" preserveAspectRatio="none" viewBox="0 0 16 16">
<path fill="#7A8899" d="M1.84,5.915c0.24-0.25,0.643-0.25,0.892,0L8,11.188l5.273-5.272c0.244-0.25,0.643-0.25,0.891,0l1.648,1.64
	c0.25,0.249,0.25,0.655,0,0.904l-7.368,7.354c-0.248,0.249-0.643,0.249-0.891,0L0.187,8.459c-0.249-0.249-0.249-0.655,0-0.904
	L1.84,5.915z
   M12,4.546c0,0.302-0.243,0.544-0.548,0.544H9.093v2.362C9.093,7.756,8.845,8,8.545,8H7.454
	C7.152,8,6.91,7.757,6.91,7.453V5.091H4.546C4.246,5.091,4,4.847,4,4.546V3.454c0-0.302,0.246-0.544,0.546-0.544H6.91V0.546
	C6.91,0.246,7.153,0,7.454,0h1.092c0.299,0,0.547,0.246,0.547,0.546v2.363h2.36C11.757,2.909,12,3.153,12,3.454V4.546z"/>
</svg>
