<svg xmlns="http://www.w3.org/2000/svg" preserveAspectRatio="none" viewBox="0 0 16 16">
<path fill="#3A95D5" d="M4.853,8.703h2.003V1.296c0-0.161,0.125-0.286,0.286-0.286h1.717c0.161,0,0.286,0.125,0.286,0.286v7.407
	h2.003c0.116,0,0.215,0.063,0.26,0.17s0.026,0.224-0.045,0.313l-3.13,3.434c-0.054,0.053-0.125,0.089-0.205,0.089
	c-0.081,0-0.161-0.036-0.215-0.089L4.638,9.187C4.566,9.097,4.549,8.98,4.593,8.873C4.638,8.774,4.736,8.703,4.853,8.703z
   M0,14.287c0-0.313,0.264-0.574,0.574-0.574H15.43c0.312,0,0.57,0.262,0.57,0.574v1.143
	c0,0.313-0.259,0.57-0.57,0.57H0.574C0.264,16,0,15.742,0,15.43V14.287z"/>
</svg>
