<svg xmlns="http://www.w3.org/2000/svg" preserveAspectRatio="none" viewBox="0 0 16 16">
<path fill="#7A8899" transform="translate(0,1)" d="M1.244,11.854c0.767-0.236,1.598-0.074,1.938-0.951l1.93-5.012L7.39,0h0.609h0.43
	C8.462,0.056,8.497,0.114,8.52,0.17l1.672,3.908c0.608,1.438,1.166,2.895,1.786,4.325c0.368,0.848,0.649,1.719,1.059,2.549
	c0.055,0.133,0.172,0.373,0.281,0.465c0.272,0.213,1.018,0.256,1.399,0.41c0.026,0.15,0.053,0.307,0.053,0.463
	c0,0.068-0.012,0.137-0.012,0.211c-1.032,0-2.063-0.133-3.098-0.133c-1.068,0-2.13,0.094-3.198,0.121
	c0-0.211,0.009-0.424,0.035-0.635l1.063-0.225c0.222-0.049,0.648-0.107,0.648-0.41c0-0.291-1.047-2.709-1.177-3.039L5.369,8.158
	c-0.211,0.473-1.032,2.609-1.032,2.916c0,0.623,1.197,0.648,1.66,0.717c0.007,0.154,0.007,0.305,0.007,0.473
	c0,0.068-0.007,0.146-0.014,0.217c-0.945,0-1.897-0.162-2.842-0.162c-0.112,0-0.274,0.049-0.391,0.064
	C2.247,12.475,1.744,12.5,1.23,12.5L1.244,11.854z M5.746,7.166C6.552,7.175,7.357,7.2,8.164,7.2c0.152,0,0.307-0.009,0.461-0.016
	C8.203,5.945,7.707,4.687,7.127,3.505L5.746,7.166z"/>
</svg>
