<svg xmlns="http://www.w3.org/2000/svg" preserveAspectRatio="none" viewBox="0 0 16 16">
<path fill="#7A8899" d="M15.173,8.936L8.49,15.623C8.246,15.858,7.904,16,7.554,16c-0.346,0-0.674-0.142-0.923-0.377l-0.768-0.776
	c-0.248-0.24-0.391-0.582-0.391-0.928c0-0.354,0.143-0.688,0.391-0.937l3.009-3.012H1.64c-0.736,0-1.198-0.613-1.198-1.314V7.344
	c0-0.701,0.462-1.314,1.198-1.314h7.232L5.863,3.008C5.615,2.773,5.473,2.436,5.473,2.085s0.143-0.688,0.391-0.923l0.768-0.772
	C6.88,0.142,7.208,0,7.554,0C7.904,0,8.246,0.142,8.49,0.391l6.683,6.687C15.421,7.313,15.559,7.649,15.559,8
	S15.421,8.688,15.173,8.936z"/>
</svg>
