<svg xmlns="http://www.w3.org/2000/svg" preserveAspectRatio="none" viewBox="0 0 16 16">
<path fill="#7A8899" d="M16,8.333v0.668c0,0.185-0.146,0.33-0.33,0.33H0.335C0.145,9.331,0,9.186,0,9.001V8.333
	C0,8.146,0.145,8,0.335,8H15.67C15.854,8,16,8.146,16,8.333z M3.169,6.498c-0.335-0.676-0.5-1.333-0.5-1.954
	c0-1.273,0.466-2.333,1.394-3.223C4.992,0.438,6.357,0,8.161,0c0.388,0,0.966,0.073,1.733,0.2c0.459,0.082,1.075,0.247,1.843,0.5
	c0.073,0.271,0.146,0.685,0.219,1.23c0.092,0.821,0.146,1.458,0.146,1.905c0,0.145-0.021,0.301-0.055,0.467l-0.126,0.034
	l-0.875-0.063l-0.145-0.02c-0.352-1.055-0.715-1.765-1.064-2.137C9.22,1.482,8.477,1.166,7.65,1.166
	c-0.798,0-1.434,0.209-1.9,0.618C5.283,2.187,5.055,2.697,5.055,3.305c0,0.51,0.229,0.986,0.686,1.458
	c0.457,0.466,1.424,0.914,2.901,1.34c0.505,0.146,1.093,0.375,1.802,0.686c0.381,0.18,0.711,0.355,0.997,0.545H3.698
	C3.5,7.08,3.325,6.805,3.169,6.498z M13.264,10.002c0.044,0.293,0.074,0.607,0.074,0.953c0,0.748-0.142,1.493-0.434,2.206
	c-0.151,0.396-0.399,0.744-0.733,1.089c-0.253,0.238-0.634,0.516-1.143,0.842c-0.515,0.311-1.041,0.548-1.59,0.689
	C8.89,15.927,8.186,16,7.325,16c-0.579,0-1.26-0.019-2.032-0.237l-1.458-0.419c-0.408-0.111-0.646-0.215-0.749-0.292
	c-0.044-0.038-0.087-0.111-0.087-0.233v-0.131c0-0.088,0.024-0.622-0.02-1.623c-0.019-0.524,0.02-0.89,0.02-1.094v-0.456
	l1.063-0.03c0.385,0.89,0.564,1.42,0.677,1.604c0.253,0.413,0.534,0.728,0.836,0.982c0.301,0.253,0.665,0.45,1.094,0.598
	c0.417,0.149,0.879,0.223,1.37,0.223c0.438,0,0.929-0.093,1.452-0.277c0.53-0.179,0.952-0.476,1.264-0.894
	c0.326-0.419,0.492-0.871,0.492-1.347c0-0.582-0.277-1.127-0.841-1.638c-0.234-0.2-0.709-0.441-1.424-0.734H13.264z"/>
</svg>
