<svg xmlns="http://www.w3.org/2000/svg" preserveAspectRatio="none" viewBox="0 0 16 16">
<path fill="#7A8899" d="M12.022,6.828l-1.791-1.797C10.085,4.89,10,4.69,10,4.481s0.085-0.409,0.231-0.549l0.457-0.459
	c0.148-0.147,0.345-0.232,0.551-0.232c0.207,0,0.41,0.085,0.557,0.232l3.974,3.978C15.918,7.592,16,7.791,16,8
	s-0.082,0.408-0.23,0.557l-3.974,3.978c-0.146,0.14-0.35,0.226-0.557,0.226c-0.206,0-0.402-0.086-0.551-0.226l-0.457-0.461
	C10.085,11.929,10,11.727,10,11.521c0-0.211,0.085-0.408,0.231-0.557l1.791-1.791
   M14,9.093c0,0.602-0.486,1.088-1.093,1.088H9.186v4.727C9.186,15.514,8.689,16,8.093,16H5.907
	c-0.602,0-1.088-0.486-1.088-1.093v-4.727H1.093C0.49,10.181,0,9.694,0,9.093V6.907c0-0.602,0.49-1.088,1.093-1.088h3.727V1.093
	C4.819,0.491,5.306,0,5.907,0h2.186c0.597,0,1.093,0.491,1.093,1.093v4.727h3.722C13.514,5.819,14,6.306,14,6.907V9.093z"/>
</svg>
