<svg xmlns="http://www.w3.org/2000/svg" preserveAspectRatio="none" viewBox="0 0 16 16">
<path fill="#3A95D5" d="M16,13.719c0,0.313-0.263,0.566-0.575,0.566H0.571C0.258,14.285,0,14.031,0,13.719v-1.142
		c0-0.313,0.258-0.575,0.571-0.575h14.854c0.313,0,0.575,0.263,0.575,0.575V13.719z M14.858,6.86c0,0.313-0.263,0.571-0.575,0.571
		H1.712c-0.313,0-0.571-0.259-0.571-0.571V5.715c0-0.313,0.258-0.571,0.571-0.571h12.571c0.313,0,0.575,0.259,0.575,0.571V6.86z
		 M12.575,10.285c0,0.313-0.263,0.575-0.575,0.575H4c-0.313,0-0.57-0.263-0.57-0.575V9.144c0-0.313,0.258-0.57,0.57-0.57h8
		c0.313,0,0.575,0.258,0.575,0.57V10.285z M11.425,3.432c0,0.313-0.254,0.57-0.566,0.57H5.142c-0.313,0-0.571-0.258-0.571-0.57V2.29
		c0-0.313,0.259-0.575,0.571-0.575h5.717c0.313,0,0.566,0.263,0.566,0.575V3.432z"/>
</svg>
