<svg xmlns="http://www.w3.org/2000/svg" preserveAspectRatio="none" viewBox="0 0 16 16">
<path fill="#7A8899" d="M7.011,6.194L0.38,12.827c-0.23,0.233-0.369,0.55-0.369,0.889c0,0.329,0.139,0.646,0.369,0.875l1.035,1.05
	C1.649,15.861,1.97,16,2.299,16c0.33,0,0.655-0.139,0.876-0.359l6.641-6.642C8.541,8.487,7.519,7.469,7.011,6.194z M2.924,13.716
	c-0.343,0-0.625-0.291-0.625-0.624c0-0.343,0.282-0.625,0.625-0.625c0.342,0,0.624,0.282,0.624,0.625
	C3.548,13.425,3.266,13.716,2.924,13.716z
   M15.768,5.796c-0.611,1.733-2.28,2.926-4.122,2.926c-2.401,0-4.361-1.955-4.361-4.361
	C7.285,1.959,9.244,0,11.646,0c0.715,0,1.639,0.212,2.232,0.616c0.096,0.065,0.156,0.151,0.156,0.269
	c0,0.108-0.065,0.217-0.156,0.273l-2.856,1.647v2.18l1.886,1.045c0.316-0.187,2.579-1.609,2.77-1.609
	c0.199,0,0.313,0.147,0.313,0.343C15.989,5.085,15.876,5.483,15.768,5.796z"/>
</svg>
