<svg xmlns="http://www.w3.org/2000/svg" preserveAspectRatio="none" viewBox="0 0 16 16">
<path fill="#7A8899" d="M16,13.719c0,0.313-0.263,0.566-0.575,0.566H0.575C0.263,14.285,0,14.031,0,13.719v-1.142
	c0-0.313,0.263-0.575,0.575-0.575h14.85c0.313,0,0.575,0.263,0.575,0.575V13.719z M16,6.86c0,0.313-0.263,0.571-0.575,0.571H1.717
	c-0.313,0-0.575-0.259-0.575-0.571V5.715c0-0.313,0.263-0.571,0.575-0.571h13.708C15.737,5.144,16,5.402,16,5.715V6.86z M16,10.285
	c0,0.313-0.263,0.575-0.575,0.575H4c-0.313,0-0.575-0.263-0.575-0.575V9.144c0-0.313,0.263-0.566,0.575-0.566h11.425
	C15.737,8.577,16,8.831,16,9.144V10.285z M16,3.432c0,0.313-0.263,0.57-0.575,0.57H5.142c-0.313,0-0.566-0.258-0.566-0.57V2.29
	c0-0.313,0.254-0.575,0.566-0.575h10.283C15.737,1.715,16,1.978,16,2.29V3.432z"/>
</svg>
