<svg xmlns="http://www.w3.org/2000/svg" preserveAspectRatio="none" viewBox="0 0 16 16">
<path fill="#7A8899" d="M0.69,15.018c0.665-0.16,1.344-0.174,1.991-0.441c0.361-0.621,0.313-1.701,0.313-2.402
	c0-0.223,0.018-10.183-0.232-10.674C2.605,1.196,1.074,1.125,0.73,1.085L0.69,0.219C3.168,0.179,5.65,0,8.119,0
	c0.469,0,0.945,0.009,1.414,0.009c2.357,0,4.951,1.125,4.951,3.835c0,1.866-1.42,2.563-2.889,3.228
	c1.982,0.451,3.736,1.792,3.736,3.978c0,3.59-3.254,4.777-6.311,4.777c-0.916,0-1.832-0.063-2.746-0.063
	c-1.866,0-3.75,0.16-5.607,0.236L0.69,15.018z M7.439,6.813c2.143,0,3.674-0.603,3.674-3.009c0-2.031-1.799-2.732-3.539-2.732
	c-0.455,0-0.906,0.063-1.354,0.139c0,1.049,0.086,2.103,0.086,3.156c0,0.549-0.014,1.103-0.014,1.656c0,0.236,0,0.478,0.014,0.719
	C6.682,6.804,7.064,6.813,7.439,6.813z M7.908,14.844c2.375,0,3.92-0.951,3.92-3.486c0-0.652-0.09-1.326-0.434-1.875
	c-0.969-1.567-2.361-1.647-4.039-1.647c-0.313,0-0.76,0-1.049,0.103c0,1.106-0.014,2.205-0.014,3.299
	c0,0.719-0.094,2.67,0.156,3.277C6.908,14.705,7.408,14.844,7.908,14.844z"/>
</svg>
