<svg xmlns="http://www.w3.org/2000/svg" preserveAspectRatio="none" viewBox="0 0 16 16">
<path fill="#7A8899" d="M6.926,13.075l-2.85,2.846C4.013,15.971,3.942,16,3.872,16s-0.146-0.029-0.208-0.079l-2.854-2.858
	c-0.083-0.092-0.108-0.204-0.063-0.313c0.042-0.108,0.15-0.175,0.267-0.175h1.712V0.288C2.726,0.125,2.851,0,3.013,0h1.712
	c0.163,0,0.288,0.125,0.288,0.288v12.288h1.712c0.163,0,0.288,0.125,0.288,0.283C7.013,12.938,6.976,13.013,6.926,13.075z
	M15.276,6.858h-2.575V5.913h0.671l-0.421-1.288H10.78l-0.42,1.288h0.67v0.946H8.467V5.913h0.625L11.151,0h1.441l2.059,5.913h0.625
	V6.858z M14.48,16H9.263v-0.8l3.297-4.729c0.066-0.108,0.142-0.191,0.188-0.237l0.096-0.079v-0.029
	c-0.033,0-0.066,0.013-0.125,0.013c-0.066,0.017-0.158,0.021-0.267,0.021h-2.074v1.029H9.309V9.142h5.063v0.796l-3.296,4.733
	c-0.05,0.079-0.125,0.158-0.188,0.233L10.793,15v0.017L10.918,15c0.079-0.017,0.158-0.017,0.267-0.017h2.217v-1.063h1.079V16z
	M12.655,3.642l-0.642-1.946l-0.108-0.421C11.901,1.204,11.889,1.15,11.889,1.1h-0.033l-0.029,0.175
	c-0.029,0.108-0.033,0.242-0.096,0.421l-0.654,1.946H12.655z"/>
</svg>
