<svg xmlns="http://www.w3.org/2000/svg" preserveAspectRatio="none" viewBox="0 0 16 16">
<path fill="#7A8899" d="M14.858,4.858v10.283C14.858,15.612,14.471,16,14,16H2c-0.475,0-0.858-0.388-0.858-0.858V0.858
	C1.142,0.383,1.525,0,2,0h8c0.471,0,1.138,0.275,1.467,0.608l2.783,2.783C14.579,3.725,14.858,4.383,14.858,4.858z M13.717,5.712
	H10c-0.472,0-0.858-0.383-0.858-0.854V1.142H2.288v13.717h11.429V5.712z M4.975,13.717h2.509v-0.95H6.813l0.921-1.438
	c0.104-0.171,0.158-0.3,0.188-0.3h0.017c0.008,0.033,0.025,0.063,0.046,0.083c0.033,0.075,0.087,0.125,0.149,0.217l0.957,1.438
	H8.412v0.95h2.601v-0.95h-0.608l-1.717-2.438l1.737-2.517h0.604V6.858H8.537v0.954h0.661L8.275,9.233
	c-0.104,0.17-0.188,0.301-0.188,0.295H8.07c-0.008-0.04-0.024-0.063-0.045-0.091c-0.033-0.063-0.08-0.125-0.15-0.204L6.93,7.813
	h0.679V6.858H5.017v0.954h0.608l1.688,2.425l-1.733,2.529H4.975V13.717z M10.283,4.571h3.358c-0.05-0.15-0.129-0.304-0.191-0.367
	l-2.796-2.792c-0.063-0.063-0.217-0.146-0.371-0.2V4.571z"/>
</svg>
