<svg xmlns="http://www.w3.org/2000/svg" preserveAspectRatio="none" viewBox="0 0 16 16">
<path fill="#7A8899" d="M15.559,8.656c0,0.701-0.466,1.313-1.202,1.313H7.124l3.012,3.018c0.241,0.244,0.391,0.577,0.391,0.932
	c0,0.346-0.149,0.688-0.391,0.923l-0.771,0.781C9.129,15.858,8.788,16,8.441,16c-0.351,0-0.692-0.142-0.937-0.377l-6.687-6.7
	C0.583,8.688,0.441,8.346,0.441,8c0-0.351,0.142-0.688,0.377-0.936l6.687-6.674C7.749,0.143,8.091,0,8.441,0
	c0.347,0,0.675,0.143,0.923,0.391l0.771,0.759c0.241,0.248,0.391,0.586,0.391,0.937s-0.149,0.688-0.391,0.932L7.124,6.03h7.232
	c0.736,0,1.202,0.612,1.202,1.313V8.656z"/>
</svg>
