<svg xmlns="http://www.w3.org/2000/svg" preserveAspectRatio="none" viewBox="0 0 16 16">
<path fill="#7A8899" d="M12.266,7.455c-0.719,0.795-1.67,1.906-1.75,3.027c0.299,0.174,0.486,0.504,0.486,0.848
	c0,0.25-0.094,0.496-0.264,0.67c0.17,0.174,0.264,0.42,0.264,0.67c0,0.344-0.174,0.656-0.469,0.844
	c0.082,0.143,0.139,0.316,0.139,0.486c0,0.674-0.531,1-1.139,1c-0.271,0.607-0.875,1-1.531,1c-0.656,0-1.259-0.393-1.531-1
	c-0.603,0-1.134-0.326-1.134-1c0-0.17,0.049-0.344,0.134-0.486c-0.29-0.188-0.469-0.5-0.469-0.844c0-0.25,0.094-0.496,0.259-0.67
	c-0.165-0.174-0.259-0.42-0.259-0.67c0-0.344,0.188-0.674,0.491-0.848C5.409,9.361,4.462,8.25,3.744,7.455
	C3.025,6.67,2.667,5.741,2.667,4.665C2.667,1.835,5.369,0,8.002,0c2.638,0,5.33,1.835,5.33,4.665
	C13.332,5.741,12.984,6.67,12.266,7.455z M8.002,1.335c-1.884,0-4,1.25-4,3.33c0,0.67,0.272,1.366,0.71,1.88
	c0.196,0.223,0.424,0.441,0.634,0.688c0.741,0.879,1.366,1.924,1.469,3.098h2.375c0.104-1.174,0.73-2.219,1.469-3.098
	c0.205-0.246,0.438-0.465,0.639-0.688c0.438-0.514,0.705-1.21,0.705-1.88C12.002,2.585,9.889,1.335,8.002,1.335z M10.002,5
	C9.826,5,9.67,4.844,9.67,4.665c0-0.719-1.113-1-1.667-1c-0.179,0-0.335-0.156-0.335-0.33C7.667,3.156,7.824,3,8.002,3
	c0.968,0,2.332,0.509,2.332,1.665C10.334,4.844,10.178,5,10.002,5z"/>
</svg>
