<svg xmlns="http://www.w3.org/2000/svg" preserveAspectRatio="none" viewBox="0 0 16 16">
<path fill="#7A8899" d="M14.858,4.858v10.283C14.858,15.612,14.471,16,14,16H2c-0.475,0-0.858-0.388-0.858-0.858V0.858
	C1.142,0.383,1.525,0,2,0h8c0.472,0,1.138,0.275,1.467,0.608l2.783,2.783C14.579,3.725,14.858,4.383,14.858,4.858z M13.717,5.712
	H10c-0.475,0-0.858-0.383-0.858-0.854V1.142H2.288v13.717h11.429V5.712z M9.875,10.063C10.25,10.017,10.597,10,10.921,10
	c0.596,0,1.358,0.075,1.579,0.438c0.063,0.092,0.112,0.25,0.017,0.467c-0.004,0.004-0.017,0.021-0.029,0.033v0.013
	c-0.021,0.158-0.158,0.333-0.629,0.333c-0.575,0-1.438-0.254-2.188-0.646c-1.241,0.129-2.546,0.408-3.5,0.737
	c-0.921,1.575-1.625,2.342-2.163,2.342c-0.087,0-0.17-0.017-0.25-0.063l-0.212-0.108c-0.029-0.013-0.038-0.029-0.054-0.046
	c-0.046-0.046-0.079-0.142-0.054-0.325c0.088-0.408,0.57-1.096,1.68-1.675c0.07-0.046,0.158-0.017,0.203,0.05
	c0.009,0.013,0.018,0.029,0.018,0.042c0.279-0.454,0.6-1.042,0.958-1.763c0.399-0.803,0.712-1.587,0.929-2.337
	C6.938,6.517,6.85,5.517,7.008,4.929C7.07,4.704,7.204,4.571,7.383,4.571H7.57h0.009c0.134,0,0.241,0.046,0.313,0.133
	C8,4.829,8.025,5.025,7.975,5.313C7.963,5.337,7.954,5.367,7.938,5.383c0.008,0.029,0.008,0.046,0.008,0.071
	c0,0.092,0,0.179,0,0.271C7.938,6.288,7.93,6.82,7.82,7.438C8.133,8.375,8.6,9.136,9.125,9.563C9.35,9.737,9.6,9.904,9.875,10.063z
	M5.204,11.825c-0.667,0.517-1.087,1.1-1.221,1.408C4.25,13.108,4.633,12.721,5.204,11.825z M8.963,10.2
	c-0.088-0.075-0.176-0.138-0.259-0.213C8.267,9.608,7.875,9.072,7.57,8.421C7.4,8.964,7.15,9.546,6.829,10.175
	c-0.134,0.25-0.267,0.5-0.399,0.746C7.213,10.608,8.088,10.358,8.963,10.2z M7.517,6.196c0.029-0.142,0.046-0.275,0.063-0.392
	C7.6,5.65,7.625,5.525,7.642,5.421C7.65,5.392,7.662,5.375,7.68,5.35C7.671,5.337,7.671,5.321,7.662,5.304
	C7.65,5.142,7.6,5.046,7.546,4.983c0,0.017-0.009,0.025-0.009,0.033C7.445,5.267,7.445,5.696,7.517,6.196z M10.285,4.571h3.356
	c-0.05-0.15-0.129-0.304-0.191-0.367l-2.797-2.792c-0.063-0.063-0.216-0.146-0.368-0.2V4.571z M10.95,10.563
	c0.438,0.158,0.833,0.25,1.1,0.25c0.088,0,0.125,0,0.167-0.013c0-0.004-0.013-0.017-0.017-0.021
	C12.154,10.733,11.921,10.563,10.95,10.563z"/>
</svg>
