<svg xmlns="http://www.w3.org/2000/svg" preserveAspectRatio="none" viewBox="0 0 16 16">
<path fill="#7A8899" d="M14.767,16c-0.327,0-0.642-0.139-0.861-0.362l-3.298-3.293c-1.125,0.78-2.475,1.189-3.841,1.189
	C3.03,13.534,0,10.513,0,6.771C0,3.031,3.03,0,6.767,0c3.746,0,6.768,3.031,6.768,6.771c0,1.366-0.409,2.711-1.189,3.836
	l3.297,3.298c0.22,0.22,0.358,0.534,0.358,0.861C16,15.452,15.452,16,14.767,16z M6.767,2.462c-2.375,0-4.306,1.936-4.306,4.31
	c0,2.371,1.931,4.306,4.306,4.306s4.311-1.935,4.311-4.306C11.077,4.397,9.142,2.462,6.767,2.462z M9.845,7.078
	c0,0.164-0.143,0.307-0.311,0.307H7.383v2.149c0,0.168-0.143,0.311-0.306,0.311H6.461c-0.164,0-0.307-0.143-0.307-0.311V7.385H4
	c-0.164,0-0.307-0.143-0.307-0.307V6.462c0-0.164,0.143-0.306,0.307-0.306h2.154V4c0-0.164,0.143-0.306,0.307-0.306h0.616
	C7.24,3.695,7.383,3.837,7.383,4v2.156h2.151c0.168,0,0.311,0.142,0.311,0.306V7.078z"/>
</svg>
