<svg xmlns="http://www.w3.org/2000/svg" preserveAspectRatio="none" viewBox="0 0 16 16">
<path fill="#7A8899" d="M14,9.093c0,0.602-0.486,1.088-1.093,1.088H9.186v4.727C9.186,15.514,8.689,16,8.093,16H5.907
	c-0.602,0-1.088-0.486-1.088-1.093v-4.727H1.093C0.491,10.181,0,9.694,0,9.093V6.907c0-0.602,0.491-1.088,1.093-1.088h3.727V1.093
	C4.819,0.491,5.306,0,5.907,0h2.186c0.597,0,1.093,0.491,1.093,1.093v4.727h3.722C13.514,5.819,14,6.306,14,6.907V9.093z
   M16,13.843c0,0.845-0.689,1.543-1.534,1.543h-2.927c-0.846,0-1.539-0.698-1.539-1.543V2.153
	c0-0.849,0.693-1.539,1.539-1.539h2.927c0.845,0,1.534,0.69,1.534,1.539V13.843z M14.768,3.076h-3.155v11.078h2.854
	c0.159,0,0.302-0.143,0.302-0.311V3.076z"/>
</svg>
