<svg xmlns="http://www.w3.org/2000/svg" preserveAspectRatio="none" viewBox="0 0 16 16">
<path fill="#7A8899" d="M15.429,14.86c0,0.625-0.52,1.14-1.144,1.14H1.715c-0.627,0-1.144-0.515-1.144-1.14V1.143
	C0.571,0.517,1.088,0,1.715,0h12.57c0.624,0,1.144,0.517,1.144,1.143V14.86z M14.285,1.716c0-0.316-0.257-0.573-0.567-0.573H2.284
	c-0.312,0-0.569,0.257-0.569,0.573V4c0,0.313,0.258,0.571,0.569,0.571h11.434c0.311,0,0.567-0.257,0.567-0.571V1.716z M2.858,5.716
	c-0.633,0-1.144,0.509-1.144,1.141c0,0.635,0.511,1.144,1.144,1.144s1.143-0.509,1.143-1.144C4.001,6.225,3.491,5.716,2.858,5.716z
	M2.858,9.144c-0.633,0-1.144,0.511-1.144,1.148c0,0.629,0.511,1.135,1.144,1.135s1.143-0.506,1.143-1.135
	C4.001,9.654,3.491,9.144,2.858,9.144z M2.858,12.574c-0.633,0-1.144,0.506-1.144,1.144c0,0.637,0.511,1.143,1.144,1.143
	s1.143-0.506,1.143-1.143C4.001,13.08,3.491,12.574,2.858,12.574z M6.288,5.716c-0.638,0-1.146,0.509-1.146,1.141
	c0,0.635,0.508,1.144,1.146,1.144c0.633,0,1.142-0.509,1.142-1.144C7.43,6.225,6.921,5.716,6.288,5.716z M6.288,9.144
	c-0.638,0-1.146,0.511-1.146,1.148c0,0.629,0.508,1.135,1.146,1.135c0.633,0,1.142-0.506,1.142-1.135
	C7.43,9.654,6.921,9.144,6.288,9.144z M6.288,12.574c-0.638,0-1.146,0.506-1.146,1.144c0,0.637,0.508,1.143,1.146,1.143
	c0.633,0,1.142-0.506,1.142-1.143C7.43,13.08,6.921,12.574,6.288,12.574z M9.716,5.716c-0.636,0-1.144,0.509-1.144,1.141
	c0,0.635,0.508,1.144,1.144,1.144c0.633,0,1.143-0.509,1.143-1.144C10.858,6.225,10.349,5.716,9.716,5.716z M9.716,9.144
	c-0.636,0-1.144,0.511-1.144,1.148c0,0.629,0.508,1.135,1.144,1.135c0.633,0,1.143-0.506,1.143-1.135
	C10.858,9.654,10.349,9.144,9.716,9.144z M9.716,12.574c-0.636,0-1.144,0.506-1.144,1.144c0,0.637,0.508,1.143,1.144,1.143
	c0.633,0,1.143-0.506,1.143-1.143C10.858,13.08,10.349,12.574,9.716,12.574z M13.142,5.716c-0.629,0-1.139,0.509-1.139,1.141
	c0,0.635,0.51,1.144,1.139,1.144c0.637,0,1.144-0.509,1.144-1.144C14.285,6.225,13.778,5.716,13.142,5.716z M14.285,10.292
	c0-0.634-0.515-1.148-1.144-1.148c-0.624,0-1.139,0.515-1.139,1.148v3.426c0,0.624,0.515,1.143,1.139,1.143
	c0.629,0,1.144-0.519,1.144-1.143V10.292z"/>
</svg>
