<svg xmlns="http://www.w3.org/2000/svg" preserveAspectRatio="none" viewBox="0 0 16 16">
<path fill="#0066FF" d="M9.321,13.885C9.244,13.957,9.128,14,9.021,14H6.976c-0.107,0-0.221-0.043-0.294-0.115
	c-0.071-0.071-0.116-0.189-0.116-0.297V7.632H3.984c-0.217,0-0.423-0.079-0.574-0.23c-0.313-0.315-0.313-0.833,0-1.147l4.016-4.022
	c0.315-0.309,0.833-0.309,1.148,0l4.017,4.022c0.312,0.314,0.312,0.832,0,1.147c-0.15,0.151-0.359,0.23-0.572,0.23H9.432v5.956
	C9.432,13.695,9.386,13.813,9.321,13.885z"/>
</svg>
