<svg xmlns="http://www.w3.org/2000/svg" viewBox="0 0 512 512">
<path fill="#73AF00" d="M503.172,423.725H8.828c-4.875,0-8.828-3.953-8.828-8.828V97.104c0-4.875,3.953-8.828,8.828-8.828h494.345c4.875,0,8.828,3.953,8.828,8.828v317.793C512,419.773,508.047,423.725,503.172,423.725z"/>
<path fill="#FFE15A" d="M251.41,135.209L65.354,248.46c-5.651,3.439-5.651,11.641,0,15.081L251.41,376.793c2.819,1.716,6.36,1.716,9.18,0l186.057-113.251c5.651-3.439,5.651-11.641,0-15.081L260.59,135.209C257.771,133.493,254.229,133.493,251.41,135.209z"/>
<circle fill="#41479B" cx="256" cy="256.001" r="70.62"/>
<path fill="#F5F5F5" d="M195.401,219.874c-3.332,5.578-5.905,11.64-7.605,18.077c39.149-2.946,97.062,8.006,133.922,43.773c2.406-6.141,3.994-12.683,4.59-19.522C288.247,230.169,235.628,218.778,195.401,219.874z"/>
</svg>