<svg xmlns="http://www.w3.org/2000/svg" preserveAspectRatio="none" viewBox="0 0 16 16">
<path fill="#3A95D5" d="M8.278,15.883c-0.156,0.156-0.402,0.156-0.558,0l-4.604-4.598c-0.156-0.156-0.156-0.409,0-0.565l1.03-1.022
	c0.156-0.156,0.404-0.156,0.558,0L8,12.99l3.294-3.293c0.155-0.156,0.405-0.156,0.558,0l1.031,1.023
	c0.156,0.156,0.156,0.409,0,0.565L8.278,15.883z
   M7.722,0.117c0.156-0.156,0.402-0.156,0.558,0l4.604,4.598c0.156,0.156,0.156,0.409,0,0.565l-1.03,1.022
	c-0.156,0.157-0.403,0.157-0.557,0L8,3.009L4.707,6.303c-0.156,0.156-0.406,0.156-0.558,0L3.117,5.28
	c-0.156-0.156-0.156-0.409,0-0.565L7.722,0.117z"/>
</svg>
