<svg xmlns="http://www.w3.org/2000/svg" preserveAspectRatio="none" viewBox="0 0 16 16">
<rect x="0" y="0" width="16" height="16" fill="white"/>
<path fill="#CDD8E4" d="M15,1v14H1V1H15 M16,0H0v16h16V0L16,0z"/>
<path fill="#7A8899" d="M6.867,11.836c-0.166,0.157-0.419,0.157-0.585,0L2.614,8.172c-0.151-0.166-0.151-0.419,0-0.574l0.585-0.585
	c0.152-0.151,0.408-0.151,0.574,0l2.799,2.803l5.657-5.655c0.164-0.151,0.419-0.151,0.571,0l0.582,0.585
	c0.156,0.155,0.156,0.408,0,0.574L6.867,11.836z"/>
</svg>
