<svg xmlns="http://www.w3.org/2000/svg" preserveAspectRatio="none" viewBox="0 0 16 16">
<path fill="#7A8899" d="M5.274,8.817c0,0.448-0.368,0.819-0.819,0.819H2.819C2.368,9.637,2,9.266,2,8.817V7.179
	c0-0.452,0.368-0.817,0.819-0.817h1.635c0.452,0,0.819,0.365,0.819,0.817V8.817z M9.639,8.817c0,0.448-0.371,0.819-0.819,0.819
	H7.181c-0.451,0-0.816-0.371-0.816-0.819V7.179c0-0.452,0.365-0.817,0.816-0.817h1.639c0.448,0,0.819,0.365,0.819,0.817V8.817z
   M14,8.817c0,0.448-0.365,0.819-0.819,0.819h-1.633c-0.454,0-0.819-0.371-0.819-0.819V7.179c0-0.452,0.365-0.817,0.819-0.817h1.633
	C13.635,6.362,14,6.727,14,7.179V8.817z"/>
</svg>
