<svg xmlns="http://www.w3.org/2000/svg" preserveAspectRatio="none" viewBox="0 0 16 16">
<path fill="#FC4E4D" d="M15.334,3.666c0,0.188-0.146,0.333-0.334,0.333h-1v9.875c0,1.146-0.748,2.125-1.666,2.125H3.667
	C2.75,15.999,2,15.061,2,13.917V4H1C0.812,4,0.667,3.854,0.667,3.667V3c0-0.188,0.146-0.333,0.333-0.333h3.219l0.729-1.739
	c0.208-0.511,0.833-0.927,1.386-0.927h3.334c0.553,0,1.178,0.417,1.385,0.927l0.73,1.739H15c0.189,0,0.334,0.146,0.334,0.333V3.666
	z M12.668,4H3.333v9.875c0,0.5,0.282,0.792,0.333,0.792h8.667c0.055,0,0.334-0.292,0.334-0.792V4z M6,12.333
	c0,0.188-0.146,0.334-0.333,0.334H5c-0.188,0-0.333-0.146-0.333-0.334v-6C4.667,6.145,4.813,6,5,6h0.667C5.855,6,6,6.146,6,6.333
	V12.333z M10.334,2.666l-0.5-1.219C9.803,1.406,9.709,1.344,9.656,1.333H6.354C6.292,1.344,6.208,1.406,6.178,1.448L5.667,2.666
	H10.334z M8.668,12.333c0,0.188-0.146,0.334-0.333,0.334H7.667c-0.188,0-0.333-0.146-0.333-0.334v-6C7.333,6.145,7.479,6,7.667,6
	h0.667c0.188,0,0.333,0.146,0.333,0.333v6H8.668z M11.334,12.333c0,0.188-0.146,0.334-0.334,0.334h-0.666
	c-0.188,0-0.334-0.146-0.334-0.334v-6C10,6.145,10.146,6,10.334,6H11c0.189,0,0.334,0.146,0.334,0.333V12.333z"/>
</svg>
