<svg xmlns="http://www.w3.org/2000/svg" preserveAspectRatio="none" viewBox="-1 0 18 18">
<path fill="#3A95D5" d="M15.427,14.857c0,0.625-0.517,1.143-1.142,1.143H1.715c-0.625,0-1.142-0.518-1.142-1.143V3.429
	c0-0.625,0.517-1.142,1.142-1.142H2.86V1.429C2.86,0.642,3.502,0,4.289,0H4.86c0.783,0,1.429,0.642,1.429,1.429v0.858h3.43V1.429
	C9.719,0.642,10.359,0,11.145,0h0.574c0.783,0,1.426,0.642,1.426,1.429v0.858h1.142c0.625,0,1.142,0.517,1.142,1.142L15.427,14.857
	L15.427,14.857z M4.289,8.287V5.713H1.715v2.574H4.289z M4.289,11.717V8.857H1.715v2.858L4.289,11.717L4.289,11.717z M4.289,14.857
	v-2.574H1.715v2.574H4.289z M5.144,1.429c0-0.154-0.134-0.288-0.283-0.288H4.289c-0.154,0-0.287,0.133-0.287,0.288V4
	c0,0.15,0.133,0.288,0.287,0.288H4.86C5.01,4.288,5.144,4.15,5.144,4V1.429z M7.715,8.287V5.713H4.86v2.574H7.715z M7.715,11.717
	V8.857H4.86v2.858L7.715,11.717L7.715,11.717z M7.715,14.857v-2.574H4.86v2.574H7.715z M11.145,8.287V5.713H8.289v2.574H11.145z
	M11.145,11.717V8.857H8.289v2.858L11.145,11.717L11.145,11.717z M11.145,14.857v-2.574H8.289v2.574H11.145z M12.002,1.429
	c0-0.154-0.139-0.288-0.283-0.288h-0.574c-0.154,0-0.283,0.133-0.283,0.288V4c0,0.15,0.129,0.288,0.283,0.288h0.574
	c0.146,0,0.283-0.138,0.283-0.288V1.429z M14.285,8.287V5.713h-2.566v2.574H14.285z M14.285,11.717V8.857h-2.566v2.858
	L14.285,11.717L14.285,11.717z M14.285,14.857v-2.574h-2.566v2.574H14.285z"/>
</svg>
