<svg xmlns="http://www.w3.org/2000/svg" preserveAspectRatio="none" viewBox="0 -3 16 16">
<path fill="#00CC00" transform="scale(-1,1) translate(-16,0)" d="M1,3.227c0-0.121,0.081-0.239,0.19-0.29C1.3,2.887,1.438,2.897,1.528,2.978l1.909,1.591
	c0.071,0.069,0.109,0.158,0.109,0.249V8h6.365V6.091c0-0.25,0.147-0.469,0.366-0.578c0.23-0.099,0.498-0.069,0.688,0.089
	l3.818,3.184c0.289,0.24,0.289,0.734,0,0.973l-3.818,3.185c-0.189,0.158-0.457,0.198-0.688,0.089
	c-0.219-0.109-0.366-0.328-0.366-0.576v-1.911H1.328C1.15,10.544,1,10.406,1,10.229V3.227z"/>
</svg>
