<svg xmlns="http://www.w3.org/2000/svg" preserveAspectRatio="none" viewBox="0 0 16 16">
<rect x="0" y="0" width="16" height="16" fill="white"/>
<path fill="#CDD8E4" d="M15,1v14H1V1H15 M16,0H0v16h16V0L16,0z"/>
<path fill="#7A8899" transform="translate(-4,0)" d="M12,5c1.654,0,3,1.346,3,3s-1.346,3-3,3S9,9.654,9,8S10.346,5,12,5 M12,4C9.79,4,8,5.792,8,8c0,2.211,1.79,4,4,4s4-1.789,4-4C16,5.792,14.21,4,12,4L12,4z
   M11.56,5.743c0-0.097,0.074-0.171,0.17-0.171h0.344c0.097,0,0.171,0.074,0.171,0.171v1.887h1.2c0.096,0,0.172,0.074,0.172,0.17v0.344c0,0.095-0.076,0.171-0.172,0.171h-1.715c-0.096,0-0.17-0.076-0.17-0.171V5.743z"/>
</svg>
