<svg xmlns="http://www.w3.org/2000/svg" width="18px" height="18px" viewBox="0 0 150 150">
<path fill="#009900" d="M135.15,30.1c-2.146-2.813-4.529-5.529-7.15-8.15c-6.334-6.333-13.233-11.3-20.7-14.9c-3.649-1.75-7.433-3.175-11.35-4.275C89.348,0.925,82.364,0,75,0
	C63.233,0,52.467,2.35,42.7,7.05c-7.5,3.6-14.417,8.567-20.75,14.9C7.317,36.617,0,54.3,0,75s7.317,38.383,21.95,53.05
	C36.583,142.684,54.267,150,75,150c20.7,0,38.367-7.316,53-21.95c14.666-14.667,22-32.35,22-53.05C150,57.998,145.05,43.031,135.15,30.1z"/>
<polygon fill="#FFFFFF" points="121.3,57.9 64.9,114.3 27.25,76.649 39.45,64.45 64.85,89.85 109.05,45.65"/>
</svg>
