<svg xmlns="http://www.w3.org/2000/svg" preserveAspectRatio="none" viewBox="-10 -6 48 48">
<path fill="#103F51" d="M28.912,6.504l0.002,0L22.43,0.111V0.026h-0.086L22.317,0l-0.026,0.026H2.266C1.015,0.026,0,1.026,0,2.26v33.506C0,37,1.015,38,2.266,38h24.469C27.986,38,29,37,29,35.766V6.504H28.912z"/>
<path fill="#FFFFFF" d="M24.197,6.951c-1.252,0-2.266-1-2.266-2.234V1.505l5.523,5.446H24.197z"/>
<path fill="#FFFFFF" d="M6.31,30.24l-3.37-5.048h3.239l2.032,3.285l2.05-3.285h3.239l-3.407,5.048l3.567,5.271H10.41l-2.2-3.535L6,35.511H2.762L6.31,30.24z"/>
</svg>
