<svg xmlns="http://www.w3.org/2000/svg" preserveAspectRatio="none" viewBox="-3 -5 48 48">
<g transform="scale(0.85)">
<path fill="#103F51" d="M25.385,11.023l8.313,7.939c0,0,2.546,4.816-0.15,15.05c-0.085,0.324,10.484-5.117,6.592-14.899C35.666,7.877,25.385,11.023,25.385,11.023z
   M22.464,17.082c0,1.039-0.838,1.88-1.871,1.88l0,0c-1.034,0-1.873-0.842-1.873-1.88V1.881C18.72,0.842,19.559,0,20.593,0l0,0c1.033,0,1.871,0.842,1.871,1.881V17.082z
   M23.312,10.748v6.657c0,1.51-1.217,2.733-2.719,2.733c-1.503,0-2.721-1.224-2.721-2.733V5.449l-0.919-0.896L3.215,18.791c-3.902,4.044-4.485,5.102-0.458,9.024l7.996,7.789c4.025,3.92,4.452,2.712,8.353-1.332l13.739-14.238L23.312,10.748z"/>
<path fill="#FFFFFF" d="M11.491,27.854l-0.443-1.148h-0.06c-0.386,0.488-0.783,0.828-1.191,1.017c-0.409,0.188-0.941,0.283-1.598,0.283c-0.807,0-1.442-0.231-1.906-0.694c-0.463-0.464-0.695-1.123-0.695-1.98
	c0-0.896,0.312-1.557,0.937-1.982c0.624-0.426,1.564-0.661,2.823-0.707l1.458-0.045v-0.37c0-0.856-0.436-1.284-1.308-1.284c-0.672,0-1.461,0.203-2.369,0.611l-0.759-1.556c0.967-0.509,2.04-0.763,3.218-0.763c1.128,0,1.992,0.247,2.594,0.741
	s0.902,1.244,0.902,2.251v5.628H11.491L11.491,27.854z
   M10.814,23.941l-0.888,0.03c-0.667,0.021-1.163,0.141-1.488,0.363c-0.326,0.221-0.489,0.559-0.489,1.012c0,0.65,0.371,0.975,1.113,0.975c0.531,0,0.956-0.154,1.274-0.461c0.319-0.307,0.478-0.715,0.478-1.224V23.941z"/>
</g>
</svg>
