<svg xmlns="http://www.w3.org/2000/svg" preserveAspectRatio="none" viewBox="-5 -5 48 48">
<path fill="#103F51" d="M32.818,22.455h-27.637v3.454H1.9c0,0-1.9,0-1.9-1.919v-9.979c0,0,0-1.919,1.9-1.919h34.2c1.899,0,1.899,1.919,1.899,1.919v9.979c0,1.919-1.899,1.919-1.899,1.919h-3.282V22.455z M6.909,24.182V38h24.182v-13.818H6.909L6.909,24.182z M6.909,10.364V0h24.182v10.364H6.909z"/>
<path fill="#FFFFFF" d="M6.063,16.528c0,0-0.881,0-0.881,0.863c0,0.864,0.881,0.864,0.881,0.864h25.875c0,0,0.881,0,0.881-0.864c0-0.863-0.881-0.863-0.881-0.863H6.063L6.063,16.528z"/>
<rect x="9.482" y="27.973" fill="#FFFFFF" width="19.036" height="1.787"/>
<rect x="9.482" y="32.441" fill="#FFFFFF" width="19.036" height="1.787"/>
</svg>
