<svg xmlns="http://www.w3.org/2000/svg" preserveAspectRatio="none" viewBox="-1 -10 48 48">
<path fill="#103F51" d="M39.46,25.109l-6.959-6.908c1.32-1.875,2.092-4.158,2.092-6.618c0-6.397-5.223-11.583-11.666-11.583c-6.443,0-11.666,5.187-11.666,11.583s5.223,11.584,11.666,11.584c2.477,0,4.773-0.768,6.664-2.076l0,0L36.55,28L39.46,25.109z"/>
<ellipse fill="#FFFFFF" cx="22.984" cy="11.64" rx="8.921" ry="8.858"/>
<path fill="#103F51" d="M37.813,16.527L42.876,11.5l-5.063-5.026l1.563-1.551L46,11.5l-6.624,6.578L37.813,16.527z"/>
<path fill="#103F51" d="M6.624,18.078L0,11.5l6.624-6.578l1.563,1.551L3.125,11.5l5.062,5.027L6.624,18.078z"/>
</svg>
