<svg xmlns="http://www.w3.org/2000/svg" preserveAspectRatio="none" viewBox="-3 -5 48 48">
<g transform="scale(0.85)">
<path fill="#103F51" d="M25.385,11.023l8.313,7.939c0,0,2.546,4.816-0.15,15.05c-0.085,0.324,10.484-5.117,6.592-14.899C35.666,7.877,25.385,11.023,25.385,11.023z"/>
<path fill="#103F51" d="M22.464,17.082c0,1.039-0.838,1.88-1.871,1.88l0,0c-1.034,0-1.873-0.842-1.873-1.88V1.881C18.72,0.842,19.559,0,20.593,0l0,0c1.033,0,1.871,0.842,1.871,1.881V17.082z"/>
<path fill="#103F51" d="M23.312,10.748v6.657c0,1.51-1.217,2.733-2.719,2.733c-1.503,0-2.721-1.224-2.721-2.733V5.449l-0.919-0.896L3.215,18.791c-3.902,4.044-4.485,5.102-0.458,9.023l7.996,7.79c4.025,3.92,4.452,2.712,8.353-1.332l13.739-14.238L23.312,10.748z"/>
</g>
</svg>
