<svg xmlns="http://www.w3.org/2000/svg" preserveAspectRatio="none" viewBox="-7 -6 48 48">
<polygon fill="#00A194" points="27.677,0.46 27.677,32.846 23.142,28.365 21.987,29.506 28.493,35.933 35,29.506 33.845,28.365 29.31,32.846 29.31,0.46 "/>
<path fill="#00A194" stroke="#00A194" stroke-miterlimit="10" d="M15.288,28.859c-1.012-0.676-2.389-1.027-4.127-1.056v-0.039H5.84
	c-1.352,0-2.39-0.244-3.113-0.732c-0.724-0.489-1.085-1.185-1.085-2.089c0-0.947,0.36-1.665,1.08-2.154
	c0.719-0.488,1.751-0.732,3.096-0.732h5.151l0,0.01c0.155,0,0.306-0.004,0.456-0.01h0.145v-0.006
	c1.553-0.072,2.797-0.436,3.73-1.092c1.051-0.736,1.576-1.75,1.576-3.041c0-1.289-0.529-2.287-1.586-2.992
	c-0.959-0.64-2.245-0.989-3.855-1.049v-0.001h-0.039c-0.154-0.005-0.31-0.009-0.47-0.009l0.001,0.009H5.977
	c-1.352,0-2.39-0.244-3.113-0.732c-0.724-0.489-1.085-1.185-1.085-2.088c0-0.948,0.36-1.666,1.08-2.154
	c0.72-0.489,1.751-0.733,3.096-0.733h4.974l-0.003,0.031c1.852,0,3.306-0.353,4.364-1.059c1.058-0.706,1.586-1.703,1.586-2.993
	s-0.525-2.303-1.576-3.041C14.249,0.369,12.805,0,10.968,0H0.544v1.246h10.49c1.352,0,2.39,0.244,3.113,0.732
	c0.724,0.489,1.086,1.185,1.086,2.088c0,0.948-0.36,1.666-1.081,2.154c-0.599,0.406-1.417,0.641-2.448,0.709V6.922H6.086
	c-1.851,0-3.306,0.353-4.363,1.059c-1.059,0.706-1.587,1.704-1.587,2.993s0.525,2.303,1.576,3.041
	c1.051,0.738,2.494,1.106,4.331,1.106h5.39l0,0c1.161,0.043,2.07,0.283,2.72,0.725c0.721,0.488,1.08,1.205,1.08,2.154
	c0,0.902-0.362,1.6-1.085,2.088c-0.653,0.441-1.566,0.681-2.732,0.724H5.951c-1.852,0-3.306,0.353-4.364,1.059
	C0.529,22.576,0,23.574,0,24.863c0,1.29,0.525,2.303,1.576,3.041c1.051,0.737,2.494,1.105,4.331,1.105h5.146l0.004,0.037
	c1.345,0,2.376,0.244,3.096,0.732c0.721,0.488,1.08,1.206,1.08,2.154c0,0.903-0.362,1.6-1.085,2.088
	c-0.723,0.488-1.761,0.732-3.113,0.732H0.544V36h10.424c1.836,0,3.28-0.369,4.33-1.106c1.051-0.737,1.576-1.751,1.576-3.041
	S16.346,29.565,15.288,28.859z"/>
</svg>
