<svg xmlns="http://www.w3.org/2000/svg" preserveAspectRatio="none" viewBox="-8 -6 48 48">
<path transform="translate(0,-540.3622)" fill="#103F51" d="M27.998,552.614H1.334c-0.014,0-0.027,0-0.041,0.001c-0.737,0.023-1.315,0.631-1.293,1.36
	l0,21.108c0,0.018,0,0.035,0,0.055c0.004,0.044,0.009,0.086,0.019,0.132c0.006,0.044,0.016,0.086,0.028,0.128
	c0,0.001,0,0.001,0,0.002c0.003,0.01,0.006,0.02,0.01,0.031c0.023,0.072,0.051,0.144,0.085,0.211
	c0.001,0.002,0.002,0.002,0.002,0.002c0.061,0.118,0.14,0.227,0.233,0.32c0.016,0.016,0.03,0.029,0.047,0.044
	c0.034,0.033,0.072,0.064,0.108,0.093c0.039,0.028,0.078,0.053,0.118,0.074c0.014,0.009,0.028,0.018,0.041,0.025
	c0.001,0,0.002,0,0.002,0.004c0.021,0.011,0.042,0.018,0.063,0.028c0.179,0.086,0.375,0.13,0.574,0.13h0.003h27.329
	c0.624,0,1.163-0.425,1.305-1.022l3.995-17.151c0.081-0.334,0.022-0.686-0.153-0.978l-2.003-3.298
	c-0.241-0.397-0.674-0.639-1.141-0.639H29.17C28.931,552.861,28.479,552.61,27.998,552.614L27.998,552.614z M19.376,555.252
	l-0.799,1.319H7.334c-0.585,0-1.103,0.376-1.275,0.93l-3.347,9.568L2.71,555.252H19.376L19.376,555.252z M29.911,555.912l1.334,2.2
	l-3.643,15.612H3.807l4.512-14.513h11.015c0.466,0,0.901-0.244,1.142-0.64l1.611-2.659H29.911L29.911,555.912z"/>
<path transform="translate(-96,-336)" fill="#103F51" d="M130,346.156l-10.264,0.582l2.348-3.102c-3.451-4.093-7.015-5.87-12.146-5.579c6.027-3.642,10.514-1.999,15.275,1.442l2.347-3.103L130,346.156L130,346.156z"/>
<path fill="#FFFFFF" d="M29.914,15.55l1.334,2.2l-3.645,15.612H3.808l4.513-14.513h11.015c0.464,0,0.901-0.244,1.14-0.64l1.613-2.659H29.914L29.914,15.55z"/>
<path fill="#FFFFFF" d="M19.377,14.889l-0.8,1.319H7.336c-0.587,0-1.104,0.377-1.275,0.931l-3.349,9.566V14.889H19.377L19.377,14.889z"/>
</svg>
