<svg xmlns="http://www.w3.org/2000/svg" preserveAspectRatio="none" viewBox="-5 -5 48 48">
<rect fill="none" width="38" height="38"/>
<rect x="2.489" y="17.682" fill="#FFFFFF" width="32.263" height="19.482"/>
<rect x="2.936" y="0.031" fill="#FFFFFF" width="27.525" height="18.544"/>
<path fill="#103F51" d="M30.875,21.375H7.125v2.375h23.75V21.375L30.875,21.375z M30.875,26.125H7.125V28.5h23.75V26.125
	L30.875,26.125z M30.875,30.875H7.125v2.375h23.75V30.875L30.875,30.875z M30.875,0H28.5v15.438h-19V0H0v38h38V7.125L30.875,0z
   M33.25,35.625H4.75V19h28.5V35.625L33.25,35.625z M26.125,2.375h-4.75v10.688h4.75V2.375z"/>
</svg>
