<svg xmlns="http://www.w3.org/2000/svg" preserveAspectRatio="none" viewBox="-15 -11 48 48">
<path fill="#00A194" d="M0.229,8.823l1.759-0.539V8.193c-0.77-0.611-1.293-1.226-1.571-1.845C0.139,5.729,0,4.935,0,3.965
	C0,2.72,0.335,1.748,1.005,1.049C1.675,0.35,2.623,0,3.849,0c1.302,0,2.284,0.485,2.946,1.455c0.663,0.97,1.024,2.448,1.085,4.435
	l0.068,2.188h0.674c0.807,0,1.411-0.189,1.81-0.567c0.4-0.378,0.6-0.964,0.6-1.759c0-0.649-0.094-1.272-0.285-1.868
	c-0.189-0.596-0.414-1.169-0.674-1.719l1.919-0.871c0.358,0.688,0.63,1.44,0.817,2.257c0.186,0.817,0.279,1.589,0.279,2.314
	c0,1.612-0.35,2.829-1.051,3.65s-1.801,1.232-3.301,1.232H0.229V8.823z M2.056,4.813c0,0.978,0.272,1.763,0.817,2.354
	c0.544,0.592,1.307,0.888,2.29,0.888h1.097L6.19,6.429C6.145,5.16,5.933,4.238,5.556,3.661C5.18,3.084,4.603,2.796,3.826,2.796
	c-0.563,0-1,0.168-1.308,0.504C2.21,3.636,2.056,4.141,2.056,4.813z"/>
<path fill="#00A194" d="M13.089,20.98c0,1.582-0.571,2.814-1.713,3.696C10.233,25.559,8.631,26,6.567,26
	c-2.071,0-3.683-0.447-4.836-1.34C0.577,23.766,0,22.523,0,20.936c0-1.604,0.575-2.85,1.725-3.736v-0.183l-1.496-0.493v-2.017H18
	v2.692h-4.226c-0.313,0-0.777-0.015-1.395-0.045c-0.616-0.031-1.008-0.055-1.176-0.069v0.114
	C12.461,18.055,13.089,19.316,13.089,20.98z M10.896,20.282c0-1.085-0.318-1.866-0.953-2.343c-0.636-0.479-1.7-0.725-3.192-0.74
	H6.567c-1.538,0-2.651,0.245-3.34,0.734c-0.689,0.488-1.034,1.287-1.034,2.395c0,0.955,0.377,1.679,1.13,2.172
	c0.754,0.492,1.843,0.738,3.267,0.738C9.46,23.238,10.896,22.253,10.896,20.282z"/>
</svg>
