<svg xmlns="http://www.w3.org/2000/svg" preserveAspectRatio="none" viewBox="-6 -5 48 48">
<path fill="#103F51" d="M35.871,18.545h-3.177c-0.465-3.456-2.184-6.518-4.692-8.723h2.079l3.693-5.937
	c0.457-0.736,0.229-1.702-0.514-2.157c-0.742-0.454-1.714-0.223-2.172,0.512l-2.771,4.451h-1.904C25.394,2.819,22.238,0,18.5,0
	c-3.737,0-6.893,2.819-7.916,6.692H8.81L6.037,2.089C5.741,1.6,5.217,1.324,4.679,1.324c-0.276,0-0.555,0.071-0.809,0.222
	C3.122,1.99,2.877,2.954,3.325,3.695l3.693,6.128h1.979c-2.505,2.205-4.225,5.267-4.69,8.722H1.129C0.505,18.545,0,19.047,0,19.665
	v0.671c0,0.616,0.505,1.118,1.129,1.118h3.085c0.216,3.05,1.398,5.836,3.252,8.051H7.018l-3.693,6.127
	c-0.448,0.742-0.203,1.702,0.545,2.146C4.125,37.928,4.403,38,4.679,38c0.538,0,1.062-0.272,1.358-0.763l2.772-4.601h2.337
	c2.149,1.278,4.664,2.014,7.353,2.014s5.203-0.735,7.353-2.014h2.463l2.771,4.45c0.459,0.735,1.432,0.963,2.175,0.508
	c0.742-0.454,0.971-1.418,0.513-2.154l-3.694-5.934h-0.546c1.854-2.217,3.036-5.003,3.251-8.053h3.087
	c0.624,0,1.129-0.5,1.129-1.118v-0.67C37.001,19.047,36.495,18.545,35.871,18.545z"/>
</svg>
