<svg xmlns="http://www.w3.org/2000/svg" preserveAspectRatio="none" viewBox="-15 -11 48 48">
<path fill="#00A194" d="M17.771,17.178l-1.76,0.537v0.092c0.77,0.611,1.293,1.227,1.571,1.846S18,21.066,18,22.035
	c0,1.246-0.335,2.217-1.006,2.916C16.324,25.65,15.377,26,14.15,26c-1.301,0-2.283-0.484-2.945-1.455
	c-0.663-0.971-1.025-2.447-1.086-4.436l-0.068-2.188H9.377c-0.807,0-1.41,0.189-1.81,0.566c-0.4,0.379-0.6,0.965-0.6,1.76
	c0,0.65,0.095,1.271,0.285,1.867c0.191,0.596,0.415,1.17,0.673,1.719l-1.918,0.871c-0.357-0.688-0.629-1.439-0.816-2.258
	c-0.187-0.816-0.28-1.588-0.28-2.314c0-1.611,0.35-2.828,1.051-3.648c0.701-0.821,1.8-1.232,3.3-1.232h8.51V17.178L17.771,17.178z
		M15.943,21.188c0-0.979-0.271-1.764-0.816-2.355c-0.544-0.592-1.308-0.887-2.289-0.887H11.74l0.069,1.627
	c0.046,1.268,0.257,2.189,0.634,2.768c0.377,0.576,0.953,0.865,1.73,0.865c0.563,0,0.999-0.168,1.308-0.506
	C15.789,22.363,15.943,21.859,15.943,21.188z"/>
<path fill="#00A194" d="M4.911,5.02c0-1.582,0.571-2.813,1.713-3.696C7.766,0.442,9.369,0,11.433,0
	c2.071,0,3.684,0.447,4.837,1.341C17.423,2.235,18,3.477,18,5.065c0,1.604-0.575,2.849-1.725,3.735v0.184l1.496,0.493v2.017H0
	V8.801h4.226c0.313,0,0.777,0.015,1.394,0.046S6.628,8.9,6.795,8.916V8.801C5.539,7.945,4.911,6.685,4.911,5.02z M7.104,5.718
	c0,1.085,0.318,1.866,0.954,2.343c0.636,0.478,1.7,0.724,3.192,0.739h0.183c1.538,0,2.651-0.245,3.341-0.733
	s1.033-1.287,1.033-2.395c0-0.955-0.377-1.679-1.131-2.171s-1.842-0.739-3.266-0.739C8.539,2.762,7.104,3.748,7.104,5.718z"/>
</svg>
