<svg xmlns="http://www.w3.org/2000/svg" preserveAspectRatio="none" viewBox="-10 -5 48 48">
<path fill="#103F51" d="M27.916,6.504L27.916,6.504l-6.26-6.394V0.025h-0.084L21.547,0l-0.024,0.025H2.188C0.979,0.025,0,1.025,0,2.26v33.508C0,37,0.979,38,2.188,38h23.625C27.021,38,28,37,28,35.768V6.504H27.916L27.916,6.504z"/>
<path fill="#FFFFFF" d="M23.361,6.951c-1.207,0-2.187-1-2.187-2.234V1.506l5.331,5.445H23.361z"/>
<path fill="#FFFFFF" d="M9.672,30.274c-0.573,0.465-1.447,0.713-2.622,0.713H5.949v2.233h-1.75v-8.042h2.827c1.222,0,2.11,0.203,2.667,0.688c0.557,0.483,0.836,1.215,0.836,2.219C10.531,29.088,10.244,29.812,9.672,30.274z"/>
<path fill="#FFFFFF" d="M17.338,32.119c-0.739,0.734-1.867,1.103-3.385,1.103h-2.754V25.18h2.846c1.416,0,2.506,0.315,3.264,1.022c0.759,0.709,1.139,1.676,1.139,2.938C18.447,30.402,18.076,31.383,17.338,32.119z"/>
<polygon fill="#FFFFFF" points="24.763,26.743 21.043,26.743 21.043,28.53 24.543,28.53 24.543,30.095 21.043,30.095 21.043,33.222 19.293,33.222 19.293,25.18 24.763,25.18 "/>
<path fill="#103F51" d="M13.955,26.788h-1.049v4.915h1.186c0.811,0,1.435-0.229,1.871-0.647s0.654-1.035,0.654-1.833s-0.219-1.386-0.654-1.815C15.526,26.977,14.857,26.788,13.955,26.788z"/>
<path fill="#103F51" d="M8.252,27.042c-0.277-0.198-0.709-0.254-1.293-0.254H5.906v2.681h1.235c0.591,0,0.993-0.141,1.206-0.385c0.212-0.242,0.318-0.586,0.318-1.057C8.666,27.559,8.527,27.238,8.252,27.042z"/>
</svg>
