<svg xmlns="http://www.w3.org/2000/svg" preserveAspectRatio="none" viewBox="-11 -11 48 48">
<path fill="#00A194" d="M20.445,19.133c0,2.111-0.777,3.783-2.331,5.016C16.56,25.383,14.494,26,11.917,26
	c-3.097,0-5.472-0.34-7.124-1.02v-1.766c1.826,0.773,4.154,1.16,6.985,1.16c2.08,0,3.729-0.477,4.949-1.428
	c1.219-0.951,1.828-2.199,1.828-3.746c0-0.957-0.202-1.75-0.606-2.377c-0.405-0.629-1.063-1.203-1.976-1.723
	c-0.914-0.518-2.254-1.078-4.021-1.678c-2.589-0.887-4.377-1.848-5.365-2.88C5.6,9.512,5.105,8.136,5.105,6.418
	c0-1.892,0.742-3.434,2.227-4.627C8.817,0.597,10.727,0,13.062,0c2.38,0,4.616,0.45,6.707,1.349l-0.641,1.522
	c-2.104-0.876-4.114-1.315-6.032-1.315c-1.872,0-3.362,0.433-4.471,1.297C7.515,3.719,6.96,4.896,6.96,6.383
	c0,0.934,0.17,1.701,0.511,2.301c0.34,0.6,0.898,1.139,1.673,1.617c0.774,0.479,2.103,1.053,3.986,1.721
	c1.976,0.681,3.46,1.34,4.454,1.981c0.994,0.641,1.719,1.367,2.176,2.18C20.217,16.996,20.445,17.98,20.445,19.133z"/>
<rect y="15.486" fill="#103F51" width="26" height="1.441"/>
</svg>
