<svg xmlns="http://www.w3.org/2000/svg" preserveAspectRatio="none" viewBox="-6 -6 48 48">
<path fill="#103F51" d="M10.07,16.348c0.592,0.591,2.875,2.996,2.875,2.996l1.264-1.303l-1.982-2.048l3.806-4.04
	c0,0-1.718-1.674-0.966-1.007c0.719-2.668,0.065-5.646-1.963-7.743c-2.011-2.08-4.868-2.762-7.436-2.046l4.35,4.49l-1.144,4.405
	l-4.258,1.176L0.267,6.736c-0.694,2.653-0.034,5.602,1.981,7.684C4.362,16.604,7.406,17.244,10.07,16.348z M24.571,20.715
	l-5.245,5.178l8.651,8.958c0.706,0.73,1.637,1.096,2.563,1.096c0.924,0,1.852-0.365,2.562-1.096c1.416-1.464,1.416-3.832,0-5.296
	L24.571,20.715z M36,5.689L30.49,0L14.249,16.779l1.983,2.049l-9.72,10.041l-2.222,1.186L1.152,35.17L1.951,36l4.955-3.242
	l1.148-2.298l9.722-10.037l1.983,2.046L36,5.689z"/>
</svg>
