<svg xmlns="http://www.w3.org/2000/svg" preserveAspectRatio="none" viewBox="-15 -11 48 48">
<path fill="#00A194" d="M0,0h7.976c3.634,0,6.271,0.524,7.913,1.574c1.643,1.049,2.463,2.718,2.463,5.006
	c0,1.553-0.359,2.828-1.078,3.823c-0.719,0.996-1.674,1.595-2.865,1.796v0.178c1.624,0.368,2.795,1.056,3.514,2.063
	C18.641,15.448,19,16.788,19,18.459c0,2.372-0.844,4.221-2.532,5.549S12.486,26,9.587,26H0V0z M5.434,10.297h3.154
	c1.472,0,2.539-0.231,3.199-0.694s0.99-1.227,0.99-2.294c0-0.996-0.359-1.71-1.078-2.143c-0.718-0.433-1.854-0.649-3.409-0.649
	H5.434V10.297z M5.434,14.672v6.775h3.541c1.495,0,2.6-0.291,3.313-0.871c0.713-0.581,1.069-1.471,1.069-2.668
	c0-2.158-1.52-3.236-4.558-3.236H5.434L5.434,14.672z"/>
</svg>
