<svg xmlns="http://www.w3.org/2000/svg" preserveAspectRatio="none" viewBox="-9 -5 48 48">
<rect y="3.8" fill="#103F51" width="26.078" height="34.2"/>
<polygon fill="#FFFFFF" points="2.006,7.1 2.006,9.111 24.072,9.111 24.072,7.1 "/>
<polygon fill="#FFFFFF" points="2.006,12.17 2.006,14.182 24.072,14.182 24.072,12.17 "/>
<polygon fill="#FFFFFF" points="2.006,17.36 2.006,19.372 24.072,19.372 24.072,17.36 "/>
<polygon fill="#FFFFFF" points="2.006,22.672 2.006,24.684 24.072,24.684 24.072,22.672 "/>
<polygon fill="#FFFFFF" points="2.006,32.688 2.006,34.701 16.049,34.701 16.049,32.688 "/>
<polygon fill="#FFFFFF" points="2.006,27.98 2.006,29.992 20.57,29.992 20.57,27.98 "/>
<polygon fill="#103F51" points="30,0 3.921,0 3.921,2.458 27.371,2.458 27.371,34.2 30,34.2 	"/>
</svg>
