<svg xmlns="http://www.w3.org/2000/svg" viewBox="0 -2 52 52">
<rect x="0" y="8" width="52" height="33" fill="white"/>
<path stroke="#FF4B55" stroke-width="2.5" d="M0,9.25l52,0M0,14.25l52,0M0,19.25l52,0M0,24.25l52,0M0,29.25l52,0M0,34.25l52,0M0,39.25l52,0"/>
<rect x="0" y="8" width="19" height="18" fill="#41479B"/>
<path stroke="white" d="M1,10.5l1,0m3,0l1,0m3,0l1,0m3,0l1,0m3,0l1,0M3,12.5l1,0m3,0l1,0m3,0l1,0m3,0l1,0m3,0M1,14.5l1,0m3,0l1,0m3,0l1,0m3,0l1,0m3,0l1,0M3,16.5l1,0m3,0l1,0m3,0l1,0m3,0l1,0m3,0M1,18.5l1,0m3,0l1,0m3,0l1,0m3,0l1,0m3,0l1,0M3,20.5l1,0m3,0l1,0m3,0l1,0m3,0l1,0m3,0M1,22.5l1,0m3,0l1,0m3,0l1,0m3,0l1,0m3,0l1,0M3,24.5l1,0m3,0l1,0m3,0l1,0m3,0l1,0m3,0"/>
</svg>