<svg xmlns="http://www.w3.org/2000/svg" preserveAspectRatio="none" viewBox="0 0 24 24">
<rect x="0" y="0" width="24" height="24" fill="#ABD7D3"/>
<linearGradient id="G1" x1="100%" y1="0%" x2="0%" y2="100%"> <stop offset="0%" stop-color="#00A194"/> <stop offset="100%" stop-color="#00CBBB"/> </linearGradient>
<rect x="1" y="1" width="22" height="22" fill="url(#G1)"/>
<rect x="6" y="11" width="12" height="2" fill="#FFFFFF"/>
<g transform="translate(12,0),scale(0.6)">
<circle fill="#FFFFFF" cx="10" cy="10" r="9.208"/>
<path fill="#103F51" d="M10,0C4.478,0,0,4.478,0,10s4.478,10,10,10s10-4.478,10-10S15.522,0,10,0z M10,18c-4.411,0-8-3.589-8-8s3.589-8,8-8c4.41,0,8,3.589,8,8S14.41,18,10,18z"/>
<path fill="#103F51" d="M14.419,12.651L11.25,9.482V6.25C11.25,5.559,10.691,5,10,5S8.75,5.559,8.75,6.25v4.268l3.901,3.901c0.488,0.489,1.279,0.489,1.768,0C14.908,13.931,14.908,13.139,14.419,12.651z"/>
</g>
</svg>