<svg xmlns="http://www.w3.org/2000/svg" width="18px" height="18px" viewBox="0 0 150 150">
<path fill="#FF6600" d="M128.15,22.1c0.674,0.677,1.332,1.36,1.975,2.05c1.475,1.583,2.866,3.199,4.175,4.85C144.767,42.181,150,57.514,150,75c0,20.7-7.333,38.384-22,53.05
	C113.366,142.684,95.7,150,75,150c-20.733,0-38.417-7.316-53.05-21.95C7.317,113.384,0,95.7,0,75c0-17.486,5.217-32.819,15.65-46c1.313-1.65,2.704-3.267,4.175-4.85c0.645-0.69,1.303-1.373,1.975-2.05c0.05-0.05,0.1-0.1,0.15-0.15
	c6.333-6.333,13.25-11.3,20.75-14.9C52.467,2.35,63.233,0,75,0c11.733,0,22.5,2.35,32.3,7.05c7.467,3.6,14.367,8.566,20.7,14.9C128.05,22,128.101,22.05,128.15,22.1z"/>
<polygon fill="#FFFFFF" points="87.4,30.2 84.351,86.45 64.75,86.45 61.7,30.2"/>
<path fill="#FFFFFF" d="M86.8,107.3c0,3.567-1.083,6.351-3.25,8.351c-2.166,2-5.199,3-9.1,3c-3.9,0-6.967-1-9.2-3c-2.2-2-3.3-4.783-3.3-8.351c0-3.6,1.067-6.399,3.2-8.399s5.233-3,9.3-3c4.033,0,7.117,1,9.25,3C85.767,100.9,86.8,103.7,86.8,107.3z"/>
</svg>
