<svg xmlns="http://www.w3.org/2000/svg" width="18px" height="18px" viewBox="0 0 150 150">
<path fill="#D20000" d="M107.3,7.05c7.467,3.6,14.367,8.567,20.7,14.9c0.414,0.415,0.822,0.831,1.225,1.25c0.649,0.677,1.283,1.36,1.9,2.05c1.424,1.583,2.766,3.2,4.025,4.85
	C145.05,43.032,150,57.998,150,75c0,20.7-7.333,38.383-22,53.05C113.366,142.684,95.7,150,75,150c-20.733,0-38.417-7.316-53.05-21.95C7.316,113.383,0,95.7,0,75c0-17.002,4.934-31.968,14.8-44.9
	c1.264-1.649,2.605-3.266,4.025-4.85c0.619-0.69,1.252-1.373,1.899-2.05c0.403-0.419,0.812-0.835,1.226-1.25c6.333-6.333,13.25-11.3,20.75-14.9C52.467,2.35,63.233,0,75,0C86.733,0,97.5,2.35,107.3,7.05z"/>
<polygon fill="#FFFFFF" points="41.75,40.4 62.4,40.4 74.85,61.7 86.85,40.4 108.1,40.4 86.25,75.55 109.75,109.35 88.2,109.35 74.8,87.8 61.45,109.35 40.4,109.35 63.2,74.1"/>
</svg>
