<svg xmlns="http://www.w3.org/2000/svg" preserveAspectRatio="none" viewBox="0 0 64 64">
<path fill="#999" d="M20.4,21.7V17l5.4-1.9V6.4l-5.4-1.8V0l24,8.4v4.6L20.4,21.7z M29.9,13.7l8.9-3l-8.9-2.9V13.7z
   M44.4,24.1v8.7c0,1.7-0.1,3-0.2,3.8c-0.2,0.8-0.5,1.6-1,2.3c-0.5,0.7-1.2,1.2-2,1.7
	c-0.8,0.4-1.8,0.7-2.8,0.7c-1.1,0-2.2-0.3-3.1-0.8c-0.9-0.5-1.6-1.3-2.1-2.2c-0.4,1.3-1.1,2.3-2.2,3c-1,0.7-2.2,1.1-3.6,1.1
	c-1.1,0-2.1-0.2-3.2-0.7c-1-0.5-1.9-1.1-2.5-1.9c-0.6-0.8-1-1.8-1.1-2.9c-0.1-0.7-0.1-2.5-0.2-5.3v-7.4H44.4z M40.4,28.4h-5.5v2.9
	c0,1.7,0,2.8,0.1,3.2c0.1,0.7,0.4,1.3,0.9,1.8s1.1,0.6,1.9,0.6c0.7,0,1.3-0.2,1.8-0.6c0.5-0.4,0.7-0.9,0.8-1.6
	c0.1-0.4,0.1-1.7,0.1-3.7V28.4z M30.9,28.4h-6.4v4c0,1.6,0,2.6,0.1,3c0.1,0.7,0.4,1.2,1,1.6c0.5,0.4,1.2,0.6,2,0.6
	c0.7,0,1.3-0.2,1.8-0.5c0.5-0.3,0.9-0.8,1.1-1.4c0.2-0.6,0.3-1.9,0.3-3.9V28.4z
   M29.2,59.8L27.7,64c-2.6-0.7-4.6-1.7-5.8-3.2C20.7,59.2,20,57.3,20,55c0-2.9,1.1-5.2,3.3-7.1
	c2.2-1.9,5.1-2.8,8.9-2.8c4,0,7.1,0.9,9.3,2.8c2.2,1.9,3.3,4.3,3.3,7.3c0,2.6-0.9,4.8-2.6,6.5c-1,1-2.5,1.7-4.4,2.2l-1.1-4.3
	c1.2-0.3,2.2-0.8,2.9-1.6c0.7-0.8,1.1-1.8,1.1-3c0-1.6-0.6-2.9-1.9-3.9c-1.3-1-3.3-1.5-6.2-1.5c-3,0-5.2,0.5-6.5,1.5
	c-1.3,1-1.9,2.3-1.9,3.8c0,1.2,0.4,2.2,1.2,3C26.2,58.8,27.5,59.4,29.2,59.8z"/>
</svg>