<svg xmlns="http://www.w3.org/2000/svg" preserveAspectRatio="none" viewBox="0 0 64 64">
<g fill="none" stroke="#999" stroke-width="4">
   <path d="M54,32c0-1.9-0.2-3.7-0.7-5.4l7.6-4.4l-6-10.4l-7.7,4.4c-2.6-2.5-5.8-4.4-9.3-5.4V2H26v8.8c-3.6,1-6.7,2.9-9.3,5.4L9,11.8L3,22.2l7.6,4.4C10.2,28.3,10,30.1,10,32
   	s0.2,3.7,0.7,5.4L3,41.8l6,10.4l7.7-4.4c2.6,2.5,5.8,4.4,9.3,5.4V62h12v-8.8c3.6-1,6.7-2.9,9.3-5.4l7.7,4.4l6-10.4l-7.6-4.4C53.8,35.7,54,33.9,54,32z"/>
   <circle fill="none" cx="32" cy="32" r="10"/>
</g>
</svg>