<svg xmlns="http://www.w3.org/2000/svg" preserveAspectRatio="none" viewBox="0 0 64 64">
<path fill="#999" d="M44.4,42.3V47l-5.4,1.9v8.7l5.4,1.8V64l-24-8.4v-4.6L44.4,42.3z M34.9,50.3l-8.9,3l8.9,2.9V50.3z
   M20.4,39.9v-8.7c0-1.7,0.1-3,0.2-3.8c0.2-0.8,0.5-1.6,1-2.3c0.5-0.7,1.2-1.2,2-1.7
	c0.8-0.4,1.8-0.7,2.8-0.7c1.1,0,2.2,0.3,3.1,0.8c0.9,0.5,1.6,1.3,2.1,2.2c0.4-1.3,1.1-2.3,2.2-3c1-0.7,2.2-1.1,3.6-1.1
	c1.1,0,2.1,0.2,3.2,0.7c1,0.5,1.9,1.1,2.5,1.9c0.6,0.8,1,1.8,1.1,2.9c0.1,0.7,0.1,2.5,0.2,5.3v7.4H20.4z M24.4,35.6h5.5v-2.9
	c0-1.7,0-2.8-0.1-3.2c-0.1-0.7-0.4-1.3-0.9-1.8s-1.1-0.6-1.9-0.6c-0.7,0-1.3,0.2-1.8,0.6c-0.5,0.4-0.7,0.9-0.8,1.6
	c-0.1,0.4-0.1,1.7-0.1,3.7V35.6z M33.9,35.6h6.4v-4c0-1.6,0-2.6-0.1-3c-0.1-0.7-0.4-1.2-1-1.6c-0.5-0.4-1.2-0.6-2-0.6
	c-0.7,0-1.3,0.2-1.8,0.5c-0.5,0.3-0.9,0.8-1.1,1.4C34,28.7,33.9,30,33.9,32V35.6z
   M35.6,4.2L37,0c2.6,0.7,4.6,1.7,5.8,3.2c1.3,1.5,1.9,3.4,1.9,5.8c0,2.9-1.1,5.2-3.3,7.1
	c-2.2,1.9-5.1,2.8-8.9,2.8c-4,0-7.1-0.9-9.3-2.8S20,11.8,20,8.7c0-2.6,0.9-4.8,2.6-6.5c1-1,2.5-1.7,4.4-2.2l1.1,4.3
	c-1.2,0.3-2.2,0.8-2.9,1.6s-1.1,1.8-1.1,3c0,1.6,0.6,2.9,1.9,3.9c1.3,1,3.3,1.5,6.2,1.5c3,0,5.2-0.5,6.5-1.5c1.3-1,1.9-2.3,1.9-3.8
	c0-1.2-0.4-2.2-1.2-3C38.6,5.2,37.3,4.6,35.6,4.2z"/>
</svg>