<svg xmlns="http://www.w3.org/2000/svg" preserveAspectRatio="none" viewBox="0 0 64 64">
<g fill="none" stroke="#999" stroke-width="4">
   <path d="M62.5,20C56.9,25.9,45.3,30,32,30S7.1,25.9,1.5,20M1.5,20C7.1,25.9,18.7,30,32,30s24.9-4.1,30.5-10
      M50.1,50.8C52.6,46.6,54,41.5,54,36c0-14.4-9.8-26-22-26S10,21.6,10,36c0,5.5,1.4,10.6,3.9,14.8
	   M62.5,58c-2.8-3-7.1-5.5-12.4-7.2C46.1,57.6,39.5,62,32,62s-14.1-4.4-18.1-11.2C8.6,52.5,4.3,55,1.5,58
	   M13.9,50.8C17.9,57.6,24.5,62,32,62s14.1-4.4,18.1-11.2"/>
   <line x1="0" y1="38" x2="10" y2="38"/>
   <line x1="64" y1="38" x2="54" y2="38"/>
   <line x1="42" y1="14" x2="50" y2="2"/>
   <line x1="22" y1="14" x2="14" y2="2"/>
</g>
</svg>