<svg xmlns="http://www.w3.org/2000/svg" viewBox="0 1 30 30">
<rect x="0" y="6" width="32" height="20" fill="white"/>
<path stroke="#FF4B55" stroke-width="1.5" d="M0,6.75l32,0M0,9.75l32,0M0,12.75l32,0M0,15.75l32,0M0,18.75l32,0M0,21.75l32,0M0,24.75l32,0"/>
<rect x="0" y="6" width="13" height="11" fill="#41479B"/>
<path stroke="white" d="M1,7.5l1,0m1,0l1,0m1,0l1,0m1,0l1,0m1,0l1,0m1,0l1,0M2,9.5l1,0m1,0l1,0m1,0l1,0m1,0l1,0m1,0l1,0m1,0M1,11.5l1,0m1,0l1,0m1,0l1,0m1,0l1,0m1,0l1,0m1,0l1,0M2,13.5l1,0m1,0l1,0m1,0l1,0m1,0l1,0m1,0l1,0m1,0M1,15.5l1,0m1,0l1,0m1,0l1,0m1,0l1,0m1,0l1,0m1,0l1,0"/>
</svg>