<svg xmlns="http://www.w3.org/2000/svg" preserveAspectRatio="none" viewBox="0 0 64 64">
<rect fill="#BBB" stroke="#999" stroke-width="4" x="10" y="10" width="40" height="40" rx="3" ry="3"/>
<rect fill="white" x="26.3" y="41.2" width="6.8" height="6.8"/>
<path fill="white" d="M38.9,15.1c-2.3-2-5.4-3.1-9.3-3.1c-3.7,0-6.7,1-9,3c-2.3,2-3.5,4.5-3.7,7.4l6.3,0.8c0.4-2,1.2-3.5,2.4-4.5
	c1.2-1,2.6-1.5,4.3-1.5c1.8,0,3.2,0.5,4.3,1.4s1.6,2.1,1.6,3.4c0,1-0.3,1.8-0.9,2.6c-0.4,0.5-1.6,1.6-3.6,3.2c-2,1.6-3.3,3.1-4,4.4
	c-0.7,1.3-1,2.9-1,4.9c0,0,0,0.1,0,0.2h6.2c0.1-1.1,0.2-1.9,0.4-2.5c0.3-0.7,1.2-1.7,2.7-2.9c2.8-2.3,4.6-4.1,5.4-5.5
	c0.8-1.3,1.3-2.8,1.3-4.3C42.4,19.6,41.3,17.2,38.9,15.1z"/>
</svg>