<svg xmlns="http://www.w3.org/2000/svg" preserveAspectRatio="none" viewBox="0 0 64 64">
<g fill="none" stroke="#999" stroke-width="4">
   <rect x="6" y="10" width="48" height="44"/>
   <line x1="6" y1="22" x2="54" y2="22"/>
   <line x1="14" y1="4" x2="14" y2="16"/>
   <line x1="46" y1="4" x2="46" y2="16"/>
</g>
<g fill="#999">
   <rect x="44" y="28" width="4" height="4"/>
   <rect x="36" y="28" width="4" height="4"/>
   <rect x="28" y="28" width="4" height="4"/>
   <rect x="44" y="36" width="4" height="4"/>
   <rect x="36" y="36" width="4" height="4"/>
   <rect x="28" y="36" width="4" height="4"/>
   <rect x="20" y="36" width="4" height="4"/>
   <rect x="12" y="36" width="4" height="4"/>
   <rect x="12" y="44" width="4" height="4"/>
   <rect x="20" y="44" width="4" height="4"/>
   <rect x="28" y="44" width="4" height="4"/>
</g>
</svg>