<svg xmlns="http://www.w3.org/2000/svg" preserveAspectRatio="none" viewBox="0 0 20 20">
<path fill="#2196F3" d="M3.7,7.7C3.3,7,3.1,6.3,3.1,5.4c0-0.8,0.2-1.5,0.5-2.2C4,2.5,4.5,2,5.1,1.5C5.8,1,6.5,0.7,7.4,0.4
	C8.3,0.1,9.3,0,10.3,0c1.1,0,2.1,0.1,2.9,0.5c0.9,0.3,1.6,0.7,2.3,1.3c0.6,0.5,1.1,1.2,1.4,1.9s0.5,1.5,0.5,2.4h-4
	c0-0.4-0.1-0.8-0.2-1.1c-0.1-0.4-0.3-0.7-0.6-0.9c-0.3-0.3-0.6-0.4-1-0.6c-0.4-0.1-0.9-0.2-1.4-0.2c-0.5,0-1,0.1-1.4,0.2
	c-0.4,0.1-0.7,0.3-1,0.5C7.7,4.1,7.5,4.3,7.3,4.6C7.2,4.9,7.1,5.1,7.1,5.4c0,0.6,0.3,1.2,1,1.6C8.6,7.4,9.1,7.7,10,8H3.9
	C3.8,7.9,3.7,7.8,3.7,7.7z
   M22,12V9.3H-2V12h12.8c0.2,0.1,0.5,0.2,0.7,0.3c0.5,0.2,0.9,0.5,1.2,0.7s0.5,0.5,0.6,0.8
	c0.1,0.3,0.1,0.6,0.1,0.9c0,0.3-0.1,0.6-0.2,0.9c-0.1,0.3-0.3,0.5-0.6,0.7c-0.3,0.2-0.6,0.3-0.9,0.5c-0.4,0.1-0.8,0.2-1.3,0.2
	c-0.6,0-1.1-0.1-1.6-0.2s-0.9-0.3-1.2-0.6c-0.3-0.3-0.6-0.6-0.8-1c-0.2-0.4-0.3-1-0.3-1.6h-4c0,0.7,0.1,1.5,0.3,2.1
	s0.5,1.1,0.9,1.6c0.4,0.5,0.8,0.9,1.3,1.2c0.5,0.3,1,0.6,1.6,0.9c0.6,0.2,1.2,0.4,1.8,0.5c0.6,0.1,1.3,0.2,1.9,0.2
	c1.1,0,2-0.1,2.9-0.4c0.9-0.3,1.6-0.6,2.2-1.1c0.6-0.5,1.1-1,1.4-1.7c0.3-0.7,0.5-1.4,0.5-2.3c0-0.8-0.1-1.5-0.4-2.1
	c-0.1-0.1-0.1-0.3-0.2-0.4L22,12L22,12z"/>
</svg>
