<svg xmlns="http://www.w3.org/2000/svg" preserveAspectRatio="none" viewBox="0 0 20 20">
<path fill="#2196F3" d="M18.9,5.6h-3.1c-0.5-0.9-1.2-1.6-2-2.2l1.8-1.8L14,0l-2.4,2.4c-0.5-0.1-1-0.2-1.6-0.2S8.9,2.3,8.4,2.4L6,0
	L4.4,1.6l1.8,1.8c-0.8,0.6-1.5,1.3-2,2.2H1.1v2.2h2.3C3.4,8.1,3.3,8.5,3.3,8.9V10H1.1v2.2h2.2v1.1c0,0.4,0,0.7,0.1,1.1H1.1v2.2h3.1
	c1.2,2,3.3,3.3,5.8,3.3s4.6-1.3,5.8-3.3h3.1v-2.2h-2.3c0.1-0.4,0.1-0.7,0.1-1.1v-1.1h2.2V10h-2.2V8.9c0-0.4,0-0.7-0.1-1.1h2.3V5.6z
	 M12.2,14.4H7.8v-2.2h4.4V14.4z M12.2,10H7.8V7.8h4.4V10z"/>
</svg>
