<svg xmlns="http://www.w3.org/2000/svg" preserveAspectRatio="none" viewBox="0 0 20 20">
<path fill="#2196F3" d="M2,18h14v2H2c-1.1,0-2-0.9-2-2V4h2V18zM18,0H6C4.9,0,4,0.9,4,2v12c0,1.1,0.9,2,2,2h12c1.1,0,2-0.9,2-2V2C20,0.9,19.1,0,18,0z
   M8.7,11L8.3,9.9C8,9.5,7.9,9.2,7.8,8.8h0C7.6,9.2,7.5,9.5,7.3,9.9L6.9,11H5.5L7,8L5.5,5h1.4l0.5,1.1c0.2,0.4,0.3,0.7,0.4,1h0c0.1-0.4,0.2-0.7,0.4-1L8.7,5h1.4L8.5,7.9l1.6,3.1H8.7zM14.3,11h-3.4V5h1.2v4.8h2.2V11z 
   M16.3,11.1c-0.6,0-1.2-0.2-1.5-0.4L15,9.6c0.3,0.2,0.8,0.4,1.4,0.4c0.6,0,0.9-0.3,0.9-0.6c0-0.4-0.3-0.6-0.9-0.8c-0.9-0.3-1.5-0.9-1.5-1.8c0-1,0.8-1.8,2.1-1.8c0.6,0,1.1,0.1,1.4,0.3L18,6.3C17.8,6.2,17.4,6,16.9,6c-0.5,0-0.8,0.3-0.8,0.6c0,0.4,0.3,0.6,1,0.8c1,0.4,1.4,0.9,1.4,1.8C18.5,10.2,17.8,11.1,16.3,11.1z"/>
</svg>
