<svg xmlns="http://www.w3.org/2000/svg" preserveAspectRatio="none" viewBox="0 0 20 20">
<path fill="#2196F3" d="M12,0H4C2.9,0,2,0.9,2,2l0,16c0,1.1,0.9,2,2,2h12c1.1,0,2-0.9,2-2V6L12,0z
   M10,16c-2.1,0-3.8-1.2-4.6-3h1.7c0.6,0.9,1.7,1.5,2.9,1.5c1.9,0,3.5-1.6,3.5-3.5S11.9,7.5,10,7.5c-1.4,0-2.5,0.8-3.1,1.9L8.5,11h-4V7l1.3,1.3C6.7,6.9,8.2,6,10,6c2.8,0,5,2.2,5,5S12.8,16,10,16z
   M14.8,7.8c-0.6-1.8-2.1-3.2-4.6-3.2c-0.3,0-0.6,0-0.9,0.1C8.7,4.4,8,4.3,7.3,4.3c-5.1,0-6.1,6.2-3.2,8.8c-0.2,2.7,1.4,5.5,4.8,5.5c1.9,0,3.2-0.9,4-2.1C16.8,15.6,17.5,10.2,14.8,7.8z"/>
</svg>
