<svg xmlns="http://www.w3.org/2000/svg" preserveAspectRatio="none" viewBox="0 0 20 20">
<path fill="#E2E2E2" d="M18,0H2C0.9,0,0,0.9,0,2v16c0,1.1,0.9,2,2,2h16c1.1,0,2-0.9,2-2V2C20,0.9,19.1,0,18,0z M6,18H2v-4h4V18z M6,12H2V8h4V12z M6,6H2V2h4V6z M12,18H8v-4h4V18z M12,12H8V8h4V12z M12,6H8V2h4V6z M18,18h-4v-4h4V18z M18,12h-4V8h4V12z M18,6h-4V2h4V6z"/>
<path fill="#2196F3" d="M18,20V0c1.1,0,2,0.9,2,2v16C20,19.1,19.1,20,18,20zM2,0v20c-1.1,0-2-0.9-2-2V2C0,0.9,0.9,0,2,0zM0,18h20c0,1.1-0.9,2-2,2H2C0.9,20,0,19.1,0,18zM20,2H0c0-1.1,0.9-2,2-2h16C19.1,0,20,0.9,20,2z"/>
</svg>
