<svg xmlns="http://www.w3.org/2000/svg" preserveAspectRatio="none" viewBox="0 0 20 20">
<path fill="#E2E2E2" d="M2,20h16c1.1,0,2-0.9,2-2V2c0-1.1-0.9-2-2-2H2C0.9,0,0,0.9,0,2v16C0,19.1,0.9,20,2,20z M14,2h4v16h-4V2z M8,2h4v16H8V2z M2,2h4v16H2V2z"/>
<path fill="#2196F3" d="M20,18V2c0-1.1-0.9-2-2-2H2C0.9,0,0,0.9,0,2v16c0,1.1,0.9,2,2,2h16C19.1,20,20,19.1,20,18z M2,6V2h16v4H2zM2,12V8h16v4H2z M2,18v-4h16v4H2z"/>
<path fill="#E2E2E2" d="M18,20V0c1.1,0,2,0.9,2,2v16C20,19.1,19.1,20,18,20zM2,0v20c-1.1,0-2-0.9-2-2V2C0,0.9,0.9,0,2,0zM0,18h20c0,1.1-0.9,2-2,2H2C0.9,20,0,19.1,0,18zM20,2H0c0-1.1,0.9-2,2-2h16C19.1,0,20,0.9,20,2z"/>
</svg>
