<svg xmlns="http://www.w3.org/2000/svg" preserveAspectRatio="none" viewBox="0 0 20 20">
<path fill="#2196F3" d="M9.8,10.5V9.5l1-0.7c0.1-0.1,0.1-0.2,0.1-0.3L10,7C9.9,6.9,9.8,6.8,9.7,6.9L8.6,7.3C8.3,7.1,8,6.9,7.7,6.8
	L7.6,5.6c0-0.1-0.1-0.2-0.3-0.2H5.5c-0.1,0-0.2,0.1-0.3,0.2L5,6.8C4.7,6.9,4.5,7.1,4.2,7.3L3,6.8c-0.1,0-0.2,0-0.3,0.1L1.8,8.5
	c-0.1,0.1,0,0.2,0.1,0.3l1,0.7v0.9l-1,0.7c-0.1,0.2-0.1,0.3-0.1,0.4L2.7,13c0.1,0.1,0.2,0.2,0.3,0.1l1.3-0.4
	c0.3,0.2,0.5,0.4,0.8,0.5l0.2,1.2c-0.1,0.1,0.1,0.2,0.2,0.2h1.8c0.1,0,0.2-0.1,0.3-0.2l0.2-1.2c0.3-0.1,0.5-0.3,0.8-0.5l1.2,0.5
	c0.1,0,0.2,0,0.3-0.1l0.9-1.5c0.1-0.1,0-0.2-0.1-0.3C10.8,11.3,9.8,10.5,9.8,10.5z
   M6.4,11.8c-1,0-1.8-0.8-1.8-1.8s0.8-1.8,1.8-1.8S8.2,9,8.2,10S7.4,11.8,6.4,11.8z
   M16.4,0H7.3c-1,0-1.8,0.8-1.8,1.8v2.7h1.8V2.7h9.1v14.5H7.3v-1.8H5.5v2.7c0,1,0.8,1.8,1.8,1.8h9.1c1,0,1.8-0.8,1.8-1.8V1.8C18.2,0.8,17.4,0,16.4,0z"/>
</svg>
