<svg xmlns="http://www.w3.org/2000/svg" preserveAspectRatio="none" viewBox="0 0 20 20">
<rect stroke="#2196F3" fill="none" rx="4" ry="4" x="0.5" y="0.5" height="18" width="19" stroke-dasharray="3,2" stroke-width="2"/>
<path fill="#2196F3" transform="translate(0,2)" d="M14.1,7.9L6.1,0L4.9,1.2L7,3.4L2.4,7.9c-0.5,0.5-0.5,1.3,0,1.9l4.9,4.9c0.3,0.4,0.6,0.4,1,0.4c0.4,0,0.7-0.1,1-0.4l4.9-4.9C14.5,9.3,14.5,8.4,14.1,7.9z
   M4,8.8l4.2-4.2l4.2,4.2H4z M16.2,10.1c0,0-1.8,1.9-1.8,3.1c0,1,0.8,1.8,1.8,1.8c1,0,1.8-0.8,1.8-1.8C18,12.1,16.2,10.1,16.2,10.1z"/>
</svg>
