<svg xmlns="http://www.w3.org/2000/svg" preserveAspectRatio="none" viewBox="0 0 20 20">
<path fill="#2196F3" d="M17.4,11c0-0.3,0.1-0.6,0.1-1s0-0.7-0.1-1l2.1-1.6c0.2-0.1,0.2-0.4,0.1-0.6l-2-3.5c-0.1-0.2-0.4-0.3-0.6-0.2
	l-2.5,1c-0.5-0.4-1.1-0.7-1.7-1l-0.4-2.7C12.5,0.2,12.3,0,12,0H8C7.8,0,7.5,0.2,7.5,0.4L7.1,3.1C6.5,3.3,6,3.7,5.4,4.1L3,3.1
	C2.7,3,2.5,3.1,2.3,3.3l-2,3.5C0.2,7,0.3,7.2,0.5,7.4L2.6,9c0,0.3-0.1,0.6-0.1,1s0,0.7,0.1,1l-2.1,1.6c-0.2,0.1-0.2,0.4-0.1,0.6
	l2,3.5C2.5,17,2.7,17,3,17l2.5-1c0.5,0.4,1.1,0.7,1.7,1l0.4,2.6C7.5,19.8,7.8,20,8,20h4c0.3,0,0.5-0.2,0.5-0.4l0.4-2.6
	c0.6-0.3,1.2-0.6,1.7-1l2.5,1c0.2,0.1,0.5,0,0.6-0.2l2-3.5c0.1-0.2,0.1-0.5-0.1-0.6L17.4,11z
   M10,13.5c-1.9,0-3.5-1.6-3.5-3.5S8.1,6.5,10,6.5s3.5,1.6,3.5,3.5S11.9,13.5,10,13.5z"/>
</svg>
