<svg xmlns="http://www.w3.org/2000/svg" xmlns:xlink="http://www.w3.org/1999/xlink" viewBox="0 0 512 512">
<path fill="#F5F5F5" d="M503.172,423.725H8.828c-4.875,0-8.828-3.953-8.828-8.828V97.104c0-4.875,3.953-8.828,8.828-8.828h494.345c4.875,0,8.828,3.953,8.828,8.828v317.793C512,419.773,508.047,423.725,503.172,423.725z"/>
<g fill="#FF4B55">
   <path d="M512,114.081H0V97.104c0-4.875,3.953-8.828,8.828-8.828h494.345c4.875,0,8.828,3.953,8.828,8.828L512,114.081L512,114.081z"/>
   <rect y="191.491" width="512" height="25.804"/>
   <rect y="139.881" width="512" height="25.804"/>
   <path d="M512,268.903H8.828c-4.875,0-8.828-3.953-8.828-8.828v-16.977h512V268.903z"/>
   <rect y="346.321" width="512" height="25.804"/>
   <path d="M503.172,423.725H8.828c-4.875,0-8.828-3.953-8.828-8.828v-16.976h512v16.977C512,419.773,508.047,423.725,503.172,423.725z"/>
   <rect y="294.711" width="512" height="25.804"/>
</g>
<path fill="#41479B" d="M229.517,88.277H8.828C3.953,88.277,0,92.229,0,97.104v162.97c0,4.875,3.953,8.828,8.828,8.828h220.69c4.875,0,8.828-3.953,8.828-8.828V97.104C238.345,92.229,234.392,88.277,229.517,88.277z"/>
<g id="G">
   <g id="F">
      <path id="S" fill="#F5F5F5" d="M24.789,108.538l1.954,5.86l6.177,0.047c0.8,0.007,1.131,1.027,0.488,1.502l-4.969,3.67l1.864,5.889c0.242,0.762-0.627,1.394-1.278,0.928L24,122.843l-5.025,3.592c-0.651,0.465-1.518-0.166-1.278-0.928l1.864-5.889l-4.969-3.67c-0.643-0.476-0.312-1.495,0.488-1.502l6.177-0.047l1.954-5.86C23.463,107.779,24.535,107.779,24.789,108.538z"/>
      <use x="0" y="30.654" xlink:href="#S"/>
      <use x="0" y="30.654" xlink:href="#S"/>
      <use x="0" y="61.308" xlink:href="#S"/>
      <use x="0" y="91.962" xlink:href="#S"/>
      <use x="0" y="122.616" xlink:href="#S"/>
   </g>
   <use x="23.793" y="15.029" xlink:href="#S"/>
   <use x="23.793" y="45.593" xlink:href="#S"/>
   <use x="23.793" y="76.247" xlink:href="#S"/>
   <use x="23.793" y="106.901" xlink:href="#S"/>
</g>
<use x="47.586" y="0" xlink:href="#G"/>
<use x="95.172" y="0" xlink:href="#G"/>
<use x="142.758" y="0" xlink:href="#G"/>
<use x="190.344" y="0" xlink:href="#F"/>
</svg>