<svg xmlns="http://www.w3.org/2000/svg" preserveAspectRatio="none" viewBox="-1 -1 16 16">
<path fill="white" d="M12.4,1.6v10.9H1.6V1.6H12.4M12.4,0H1.6C0.7,0,0,0.7,0,1.6v10.9C0,13.3,0.7,14,1.6,14h10.9c0.9,0,1.6-0.7,1.6-1.6V1.6C14,0.7,13.3,0,12.4,0z"/>
<path fill="white" d="M6,8.4l0-0.3c0-0.6,0.2-1.2,0.7-1.9C7.1,5.8,7.4,5.4,7.4,5c0-0.4-0.3-0.7-0.9-0.7c-0.4,0-0.9,0.1-1.2,0.4L4.9,3.3c0.4-0.3,1.2-0.5,2-0.5c1.6,0,2.3,0.9,2.3,1.9c0,0.9-0.6,1.5-1,2c-0.4,0.5-0.6,1-0.6,1.5v0.2H6z
   M5.7,10.1C5.7,9.4,6.1,9,6.7,9c0.6,0,1.1,0.5,1.1,1.1c0,0.6-0.4,1.1-1.1,1.1C6.1,11.2,5.7,10.7,5.7,10.1z"/>
</svg>
