<svg xmlns="http://www.w3.org/2000/svg" preserveAspectRatio="none" viewBox="-1 -1 16 16">
<rect x="1" y="1" width="11" height="12" fill="white"/>
<rect x="7" y="-1" width="1" height="2" fill="white"/>
<rect x="13" y="6" width="2" height="1" fill="white"/>
<rect x="7" y="13" width="1" height="2" fill="white"/>
<path fill="#7F7F7F" d="M12.5,0H1.6C0.7,0,0,0.7,0,1.6v10.9C0,13.3,0.7,14,1.6,14h10.9c0.9,0,1.6-0.7,1.6-1.6V1.6C14,0.7,13.3,0,12.5,0z M10.9,7.8H7.8v3.1H6.2V7.8H3.1V6.2h3.1V3.1h1.6v3.1h3.1V7.8z"/>
</svg>
