<svg xmlns="http://www.w3.org/2000/svg" preserveAspectRatio="none" viewBox="0 0 16 16">
<g transform="translate(2,0)">
   <path fill="#6A6F7C" d="M8.1,0L7.5,0h-6C0.6,0,0,0.7,0,1.5v13.1C0,15.4,0.6,16,1.4,16h9.3c0.8,0,1.4-0.6,1.4-1.4V4.8l0-0.6L8.1,0zM10.9,14.6c0,0.1-0.1,0.2-0.2,0.2H1.4c-0.1,0-0.2-0.1-0.2-0.2V1.5c0-0.1,0.1-0.2,0.2-0.2h6v3.5h3.4L10.9,14.6L10.9,14.6z"/>
   <polygon fill="#6A6F7C" points="7.5,12.8 9.3,12.8 7,9.4 8.9,6.5 7.1,6.5 6.1,8.1 5,6.5 3.3,6.5 5.2,9.4 2.9,12.8 4.6,12.8 4.7,12.8 6.7,12.8 6.1,11.8 5.3,11.8 6.1,10.7"/>
</g>
</svg>