<svg xmlns="http://www.w3.org/2000/svg" preserveAspectRatio="none" viewBox="0 0 16 16">
<path fill="#6A6F7C" opacity="0.5" d="M7,16l2,0h5h2h0V9l0,0l0-1.2V2V0l-2,0L9,0L7,0L2,0L0,0l0,2l0,5l0,0l0,1l0,6h0l0,2h0h2H7L7,16L7,16z M14,14H9V9h5V14z M14,2v5H9V2H14z M2,2h5v5H2V2z M2,14V9h5v5H2z"/>
<rect fill="#6A6F7C" x="7" y="7" transform="matrix(-3.142304e-10 -1 1 -3.142304e-10 7.0019 23.0019)" width="16" height="2"/>
<rect fill="#6A6F7C" x="-7" y="7" transform="matrix(-3.141167e-10 -1 1 -3.141167e-10 -6.9961 9.0038)" width="16" height="2"/>
</svg>