<svg xmlns="http://www.w3.org/2000/svg" preserveAspectRatio="none" viewBox="0 0 16 16">
<path transform="translate(2,0)" fill="#6A6F7C" d="M12.2,4.8V4.2L7.5,0v0h-6C0.6,0,0,0.7,0,1.5v13.1C0,15.4,0.6,16,1.4,16h9.3c0.8,0,1.4-0.6,1.4-1.4V4.8L12.2,4.8L12.2,4.8z
   M10.9,14.6c0,0.1-0.1,0.2-0.2,0.2H1.4c-0.1,0-0.2-0.1-0.2-0.2V1.5c0-0.1,0.1-0.2,0.2-0.2h6v3.5h3.4V14.6z
   M6.6,6.6c0-0.5-0.2-0.8-0.2-0.9C6.2,5.5,6,5.4,5.8,5.4c-0.1,0-0.2,0-0.3,0C5.2,5.6,5,5.7,4.9,6C4.9,6.1,4.8,6.3,4.8,6.5c0,0.5,0.2,1.1,0.4,1.6c-0.2,1-0.7,2.1-1.1,3c-1.1,0.5-1.8,1-1.9,1.7c0,0,0,0.1,0,0.1
	c0,0.2,0.1,0.6,0.4,0.8C2.9,13.9,3.1,14,3.2,14c0.4,0,0.7-0.3,1.1-0.8C4.5,12.9,4.7,12.5,5,12c0.7-0.3,1.6-0.6,2.4-0.8c0.5,0.4,0.9,0.7,1.4,0.7c0.4,0,0.7-0.2,0.9-0.5c0.1-0.2,0.2-0.4,0.2-0.6c0-0.1,0-0.2-0.1-0.3C9.6,10.1,9.2,10,8.7,10
	c-0.3,0-0.6,0-0.9,0.1c-0.5-0.5-1-1.3-1.4-2C6.5,7.4,6.6,6.9,6.6,6.6z
   M5.6,10.6C5.7,10.2,5.9,9.8,6,9.4c0.2,0.3,0.4,0.6,0.6,0.9C6.3,10.4,5.9,10.5,5.6,10.6z"/>
</svg>