<svg xmlns="http://www.w3.org/2000/svg" preserveAspectRatio="none" viewBox="0 0 16 16">
<path fill="#6A6F7C" opacity="0.5" d="M16,9l0-2V2V0v0L9,0l0,0L7.8,0L2,0L0,0l0,2l0,5l0,2l0,5l0,2h2h5l0,0l1,0h6v0h2v0v-2V9L16,9L16,9z M14,2v5H9V2H14z M2,2h5v5H2V2z M2,14V9h5v5H2z M14,14H9V9h5V14z"/>
<rect fill="#6A6F7C" x="0" y="0" transform="matrix(-1 2.693240e-10 -2.693240e-10 -1 16.0038 2)" width="16" height="2"/>
<rect fill="#6A6F7C" x="0" y="14" transform="matrix(-1 2.692103e-10 -2.692103e-10 -1 16.0038 29.9961)" width="16" height="2"/>
</svg>