<svg xmlns="http://www.w3.org/2000/svg" preserveAspectRatio="none" viewBox="0 0 16 16">
<path transform="translate(2,0)" fill="#6A6F7C" d="M0.2,5.2C0.3,5.1,0.6,5.1,0.9,5C0.3,4.4,0,3.7,0,2.8c0-0.8,0.2-1.5,0.7-2S1.8,0,2.5,0c0.9,0,1.6,0.3,2,1
   C5,1.6,5.2,2.6,5.2,3.8v1.1h0.5c0.4,0,0.8-0.1,1-0.4S7.2,4,7.2,3.5c0-0.4-0.1-0.8-0.3-1C6.6,2.2,6.4,2,6,2V0.2
	c0.5,0,0.9,0.2,1.3,0.5C7.7,0.9,8,1.3,8.2,1.9c0.2,0.5,0.3,1.1,0.3,1.7c0,1-0.2,1.7-0.7,2.3S6.7,6.8,5.8,6.8H2.1
	c-0.7,0-1.3,0.1-1.8,0.3H0.2V5.2z
   M1.5,3.2c0,0.4,0.1,0.7,0.3,1c0.2,0.3,0.4,0.6,0.7,0.7H4v-1c0-0.7-0.1-1.2-0.4-1.6s-0.6-0.5-1-0.5C2.3,1.9,2,2,1.8,2.2S1.5,2.8,1.5,3.2z
   M4.2,16c-1.3,0-2.3-0.3-3.1-0.9C0.4,14.6,0,13.8,0,12.8c0-1,0.3-1.7,1-2.3l-0.9-0.1V8.7h11.7v1.9H7.6c0.6,0.5,0.9,1.3,0.9,2.2c0,1-0.4,1.8-1.1,2.4S5.7,16,4.3,16H4.2z
   M4.4,14.1c0.9,0,1.6-0.2,2-0.5s0.7-0.8,0.7-1.4c0-0.8-0.4-1.4-1.1-1.7H2.6c-0.7,0.3-1.1,0.9-1.1,1.7c0,0.6,0.2,1,0.7,1.3s1.1,0.5,2,0.5H4.4z"/>
</svg>