<svg xmlns="http://www.w3.org/2000/svg" preserveAspectRatio="none" viewBox="0 0 16 16">
<path transform="translate(2,0)" fill="#6A6F7C" d="M11.7,10.8c-0.2,0.1-0.4,0.2-0.8,0.2c0.6,0.6,0.9,1.3,0.9,2.2c0,0.8-0.2,1.5-0.7,2c-0.5,0.5-1.1,0.8-1.8,0.8
   c-0.9,0-1.6-0.3-2-1c-0.5-0.7-0.7-1.6-0.7-2.8v-1.1H6.1c-0.4,0-0.8,0.1-1,0.4S4.7,12,4.7,12.5c0,0.4,0.1,0.8,0.3,1S5.5,14,5.9,14
	v1.9c-0.5,0-0.9-0.2-1.3-0.5c-0.4-0.3-0.7-0.7-0.9-1.2c-0.2-0.5-0.3-1.1-0.3-1.7c0-1,0.2-1.7,0.7-2.3c0.5-0.6,1.2-0.9,2.1-0.9h3.7
	c0.7,0,1.3-0.1,1.8-0.3h0.1V10.8z
   M10.4,12.8c0-0.4-0.1-0.7-0.3-1c-0.2-0.3-0.4-0.6-0.7-0.7H7.9v1c0,0.7,0.1,1.2,0.4,1.6c0.2,0.3,0.6,0.5,1,0.5c0.4,0,0.6-0.1,0.9-0.4C10.3,13.5,10.4,13.2,10.4,12.8z
   M7.7,0C9,0,10,0.3,10.8,0.9c0.8,0.6,1.1,1.4,1.1,2.4c0,1-0.3,1.7-1,2.3l0.9,0.1v1.7H0l0-1.9h4.3C3.6,4.9,3.3,4.2,3.3,3.2c0-1,0.4-1.8,1.1-2.4S6.2,0,7.6,0L7.7,0z
   M7.5,1.9C6.6,1.9,6,2,5.5,2.3S4.8,3.1,4.8,3.7c0,0.8,0.4,1.4,1.1,1.7h3.4c0.7-0.3,1.1-0.9,1.1-1.7c0-0.6-0.2-1-0.7-1.3s-1.1-0.5-2-0.5H7.5z"/>
</svg>