<svg xmlns="http://www.w3.org/2000/svg" preserveAspectRatio="none" viewBox="0 0 16 16">
<path fill="#6A6F7C" d="M5.7,11.9c-0.6,1.6-2.5,2.7-4.4,2.8c0.1-1.8,1.1-3.7,2.8-4.4l0.3,0.3c-1,1-1.4,1.8-1.4,2.3c0.5-0.1,1.3-0.4,2.3-1.4L5.7,11.9z
   M5,4.3c-1.2,0-2.7,0.6-3.8,1.7C0.7,6.5,0.3,7,0,7.6c1-0.8,2.2-1,3.4-0.3C3.8,6.3,4.3,5.3,5,4.3z
	M8.4,16c0.6-0.3,1.1-0.7,1.5-1.1c1.1-1.1,1.7-2.7,1.7-3.9c-1,0.7-2.1,1.2-3,1.5C9.4,13.8,9.2,15,8.4,16z
   M16,0c-0.3,0-0.6,0-0.8,0C8.9,0,5.5,5,4.4,8.7l3,3C11.2,10.4,16,7.1,16,1v0C16,0.6,16,0.3,16,0z
   M12,5.3c-0.7,0-1.3-0.6-1.3-1.3s0.6-1.3,1.3-1.3c0.7,0,1.3,0.6,1.3,1.3S12.7,5.3,12,5.3z"/>
</svg>