<svg xmlns="http://www.w3.org/2000/svg" preserveAspectRatio="none" viewBox="0 0 16 16">
<path fill="#6A6F7C" d="M4.7,0.9c0-0.5,0.4-0.9,1-0.9c0.6,0,1.1,0.6,0.9,1.2c-0.1,0.2,0,0.5,0.1,0.7C6.9,2.3,7.4,2.6,8,2.6c0.6,0,1-0.3,1.3-0.7c0.1-0.2,0.2-0.4,0.1-0.7C9.2,0.6,9.7,0,10.3,0c0.5,0,1,0.4,1,0.9c0,0.5-0.3,0.8-0.7,0.9
	c-0.2,0-0.4,0.2-0.5,0.4c-0.4,0.7,0.1,1.3,0.6,1.9C9.8,4.5,9,4.7,8,4.7c-1,0-1.8-0.2-2.6-0.6c0.5-0.6,1-1.2,0.6-1.9C5.9,2,5.7,1.9,5.5,1.9C5,1.8,4.7,1.4,4.7,0.9z
   M13.7,10.3h1.6c0.4,0,0.7-0.3,0.7-0.7s-0.3-0.7-0.7-0.7h-1.6c-0.4,0-0.8-0.3-0.8-0.7c-0.1-0.5,0.2-0.8,0.5-0.9l1.5-0.6c0.4-0.1,0.5-0.5,0.4-0.9c-0.1-0.4-0.6-0.5-0.9-0.4l-1.5,0.6c-0.2,0.1-0.5,0-0.6-0.3
	c-0.1-0.3-0.3-0.5-0.4-0.8C10.7,5.7,9.4,6,8,6C6.6,6,5.3,5.7,4.2,5C4.1,5.2,3.9,5.5,3.8,5.8C3.6,6.1,3.4,6.1,3.2,6.1L1.6,5.5c-0.4-0.1-0.8,0-0.9,0.4c-0.1,0.4,0,0.8,0.4,0.9l1.5,0.6c0.3,0.1,0.6,0.5,0.5,0.8C3.1,8.7,2.7,8.9,2.3,8.9H0.7C0.3,8.9,0,9.2,0,9.6
	s0.3,0.7,0.7,0.7h1.6c0.4,0,0.8,0.2,0.8,0.7c0.1,0.5-0.2,0.8-0.5,1L1,12.7c-0.4,0.2-0.5,0.6-0.4,0.9s0.6,0.5,0.9,0.3l1.7-0.8c0.2-0.1,0.5-0.1,0.6,0.2C4.6,14.6,6,15.8,8,16c2-0.2,3.3-1.4,4-2.6c0.2-0.3,0.4-0.3,0.6-0.2l1.7,0.8c0.4,0.2,0.8,0,0.9-0.3
	c0.2-0.3,0-0.8-0.4-0.9L13.4,12c-0.3-0.1-0.6-0.5-0.5-0.9C12.9,10.5,13.3,10.3,13.7,10.3z"/>
</svg>