<svg xmlns="http://www.w3.org/2000/svg" preserveAspectRatio="none" viewBox="0 0 16 16">
<path fill="#6A6F7C" d="M2.9,7.5L0,4.6l0.9-0.9c0,0,0.7,0.5,1.3-0.1c0.6-0.6,0.5-1.6,1.9-2.7C5,0.2,6,0,6.9,0c1.9,0,3.5,0.8,3.5,0.8c-3,0.3-4.2,1.5-2.9,2.8l0.7,0.7L5.9,6.7L5.2,6C4.8,5.6,4.2,5.2,3.8,5.6c-0.5,0.5,0,1,0,1L2.9,7.5z
   M8.7,4.8L6.4,7.2l6.8,7.1c0.3,0.3,0.8,0.5,1.2,0.5c0.9,0,1.7-0.8,1.7-1.7c0-0.4-0.2-0.9-0.5-1.2L8.7,4.8z
   M6.4,9.2l-3.1,3c-0.2,0.2-0.3,0.3-0.5,0.4l-0.4,0.2l-0.7,1.4l0.6,0.6L3.7,14l0.2-0.4c0.1-0.2,0.2-0.4,0.4-0.5l3.1-3L6.4,9.2z
   M10.5,4.7l2.6-2.6c0.1-0.1,0.3-0.1,0.4,0c0.1,0.1,0.1,0.3,0,0.4l-2.6,2.6l0.6,0.6l2.6-2.6c0.1-0.1,0.3-0.1,0.4,0c0.1,0.1,0.1,0.3,0,0.4l-2.6,2.6l0.7,0.7l2.8-2.8C15.8,3.7,16,3.2,16,2.7c0-0.5-0.2-1-0.6-1.4C15,0.9,14.5,0.7,14,0.7c-0.5,0-1,0.2-1.4,0.6L9.8,4L10.5,4.7z"/>
</svg>